<?xml version="1.0" encoding="UTF-8"?><!DOCTYPE svg PUBLIC "-//W3C//DTD SVG 1.1//EN" "http://www.w3.org/Graphics/SVG/1.1/DTD/svg11.dtd">
<svg xmlns="http://www.w3.org/2000/svg">
  <symbol id="icon-order-cart" viewBox="0 0 38 38">
<path d="M11.3 32.5c-1.3 0-2.3 1-2.3 2.2C9 36 10 37 11.3 37c1.3 0 2.3-1 2.3-2.3 0-1.2-1-2.2-2.3-2.2zm17.6 2.2c0 1.3-1 2.3-2.3 2.3-1.3 0-2.3-1-2.3-2.3 0-1.2 1-2.2 2.3-2.2 1.3 0 2.3 1 2.3 2.2zm-20-7L4.5 12c-.2-.6-.8-1-1.4-1H0V8h3.1c2 0 3.7 1.4 4.3 3.2l3 10.6 14.3.3 4.4-11 2.9 1-5.2 13-15.5-.3.6 2c.2.6.7 1 1.4 1.1l13.9.3v3l-14-.3c-2 0-3.7-1.3-4.3-3.3z" fill="#42746E"/>
<path d="M27.5 0a10.5 10.5 0 1 1 0 21 10.5 10.5 0 0 1 0-21z" fill="#E7B34C"/>
<path d="M24 9a2 2 0 1 1 0 4 2 2 0 0 1 0-4zM31 9a2 2 0 1 1 0 4 2 2 0 0 1 0-4z" fill="#FFF"/>
  </symbol>
</svg>
