<?xml version="1.0" encoding="UTF-8"?><!DOCTYPE svg PUBLIC "-//W3C//DTD SVG 1.1//EN" "http://www.w3.org/Graphics/SVG/1.1/DTD/svg11.dtd"><svg xmlns="http://www.w3.org/2000/svg"><symbol id="icon-arrow-box" viewBox="0 0 32 28">
    <path d="M.008 28.012V.009h32.004v28.003H.008zM29.396 2.594H2.624v22.833h26.772V2.594zm-13.953 7.807V6.925l5.455 5.389.005-.006 1.759 1.738-.005.005.005.006-1.759 1.738-.005-.006-5.496 5.429-.009-.008v-3.458l2.51-2.48H9.169v-2.441h8.734l-2.46-2.43z"/>
</symbol><symbol id="icon-arrow-right" viewBox="0 0 16 18">
    <path d="M15.988 8.964L13.904 6.78l-.006.007L7.438.015v4.368l2.913 3.054H.006v3.068h10.345l-2.973 3.116v4.346l.01.011 6.51-6.823.006.006 2.084-2.183-.006-.007.006-.007z"/>
</symbol><symbol id="icon-asort-icon" viewBox="0 0 101 76.3">
    <path d="M87 42.9c1.1-1.6 1.7-3.4 1.7-5.3 0-2.8-1.3-5.4-3.4-7.1 2.2-1.7 3.4-4.3 3.4-7.1 0-2.7-1.2-5.3-3.3-7 2.2-1.7 3.5-4.4 3.5-7.2 0-5-4.1-9.1-9.1-9.1H18.3c-5 0-9.1 4.1-9.1 9.1 0 2.7 1.2 5.3 3.3 7-2.2 1.7-3.5 4.3-3.5 7.2 0 2.8 1.3 5.4 3.4 7.1-2.1 1.7-3.4 4.3-3.4 7.1 0 1.8.6 3.6 1.6 5.1H9.4c-5.2 0-9.4 4.2-9.4 9.4 0 2.9 1.3 5.6 3.6 7.4C1.3 61.3 0 64 0 66.9c0 5.2 4.2 9.4 9.4 9.4h74.8c9.3 0 16.8-7.5 16.8-16.8 0-8.2-5.9-15.2-14-16.6zM35.1 61.7v10.8h-9.9V61.7h9.9zm0-15v10.8h-9.9V46.7h9.9zm25-37.3L49.2 4h21.9l-11 5.4zm24.1 62.9H39.1V61.5h44.2c1.1 0 2-.9 2-2s-.9-2-2-2H39.1V46.7h45.1c7 0 12.8 5.7 12.8 12.8 0 7-5.8 12.8-12.8 12.8zM18.1 32.5h61.5c2.8 0 5.1 2.3 5.1 5.1s-2.3 5.1-5.1 5.1H18.1c-2.8 0-5.1-2.3-5.1-5.1s2.3-5.1 5.1-5.1zm61.7-18.3H18.3c-2.8 0-5.1-2.3-5.1-5.1S15.5 4 18.3 4h21.9l19 9.4c.5.3 1.2.3 1.8 0L80.3 4c2.6.2 4.7 2.4 4.7 5.1-.1 2.8-2.4 5.1-5.2 5.1zm-61.7 4.1h61.5c2.8 0 5.1 2.3 5.1 5.1s-2.3 5.1-5.1 5.1H18.1c-2.8 0-5.1-2.3-5.1-5.1 0-2.9 2.3-5.1 5.1-5.1zm3 43.2v10.8H9.4c-3 0-5.4-2.4-5.4-5.4 0-3 2.4-5.4 5.4-5.4h11.7zm0-14.8v10.8H9.4c-3 0-5.4-2.4-5.4-5.4 0-3 2.4-5.4 5.4-5.4h11.7z"/>
</symbol><symbol id="icon-bathrobe" viewBox="0 0 54.3 54.9">
    <style>
        .st0{fill:#221e1f}
    </style>
    <path class="st0" d="M40 0H14.3L0 10.7v21.8h9.4v22.4h35.4l.1-22.4h9.5V10.6L40 0zM27.9 10l-8.3-6.8h16.5L27.9 10zM9.5 18.9v10.4H3.2v-17L15 3.5l10.4 8.6-6 5v12.3h-6.8V19l-3.1-.1zm9.9 13.6v19.2h-6.9l.1-19.2h6.8zm22.2 0l-.1 19.2h-19V32.5h19.1zm.1-13.6v10.4h-19V18.5L40.1 4.1l11 8.2v17.1h-6.3V19l-3.1-.1z"/>
</symbol><symbol id="icon-bedclothes" viewBox="0 0 39 45">
    <path d="M.001 45.01V23.213l4.305-4.08H.001V-.01H38.99v45.02H.001zm2.498-19.985v17.479h33.992V7.976H20.744v17.049H2.499zm1.871-2.506h13.876V9.368L4.37 22.519zM36.48 2.496H20.75V5.47h15.73V2.496zm-33.969 0v14.132h4.438L18.24 5.926v-3.43H2.511z"/>
</symbol><symbol id="icon-cadesign" viewBox="0 0 70 16.454">
    <path d="M14.455 6.687c-.794 0-1.43.636-1.43 1.43s.636 1.43 1.43 1.43c.794 0 1.43-.636 1.43-1.43s-.635-1.43-1.43-1.43zM24.374.485h-3.231v12.357h2.613V2.957h.706c1.06 0 2.613.105 3.619 1.624.423.636.583 1.413.583 2.171 0 .547-.141 1.077-.388 1.571-.848 1.748-2.26 2.048-3.284 2.048h-.53v2.472h.53c1.13 0 3.743-.159 5.367-2.754.618-.988.918-2.154.918-3.319 0-1.289-.318-2.56-1.024-3.637C28.558.573 26.068.485 24.374.485zM15.151.272c-2.331 0-3.484 1.389-4.603 4.29l-2.052 5.775H6.072c-1.975-.166-3.459-1.675-3.459-3.674 0-2.119 1.66-3.707 3.813-3.707 0 0 1.21.108 1.865-.474.729-.649.913-1.998.913-1.998H6.426C3.142.484 1.5 2.425.83 3.555.282 4.492 0 5.586 0 6.664S.282 8.835.83 9.77c.628 1.06 2.11 2.832 4.998 3.05v.035h3.251v-.013h1.14s2.357-6.889 2.897-8.261c.516-1.312 1.299-1.837 2.035-1.837 1.077 0 1.695.741 1.695 2.012v8.085h2.612V4.916c0-3.037-1.995-4.644-4.307-4.644zM49.507 3.99h2.261v8.58h-2.261zm-4.166 3.301c-.794-.371-.956-.507-1.042-.794-.145-.486.58-.809 1.065-.462l.205.146c.465.267.385.251.953.476.685.271 1.357-.029 1.357-.029s-.078-1.098-.815-1.814c-.885-.864-2.288-.824-2.288-.824-1.978 0-2.736 1.165-2.736 2.436 0 1.377.971 1.801 2.082 2.313.513.247 1.413.583 1.413 1.165 0 .477-.438.879-1.093.687-.607 0-.806-.852-1.897-.674-.703.113-.974.633-.974.633s.169.778.888 1.28c.624.436 1.226.818 2.478.818 1.521-.144 3-.665 3-2.62 0-1.607-1.307-2.137-2.596-2.737zm-6.1-2.595c-.864-.698-2.244-.918-2.653-.918-2.542 0-4.501 1.959-4.501 4.502 0 2.542 1.959 4.502 4.501 4.502 1.316 0 2.702-.578 3.604-1.695a3.546 3.546 0 0 0-.462-.473c-.491-.404-1.531-.549-2.08-.23-.117.067-.184.084-.219.069-.238.091-.493.14-.755.14-.685 0-1.475-.338-1.937-1.01l5.98-1.391h.043c0-.222 0-.623-.074-1.038-.161-.906-.566-1.747-1.447-2.458zm-4.892 3.62l-.002-.054c0-1.289.883-2.295 1.995-2.295l.055.005.028-.023s1.119-.202 1.766.682c.163.224.266.465.329.689l-4.171.996zm33.957-4.079c-.565-.318-1.219-.459-1.854-.459s-1.288.141-1.854.459c-1.677.953-1.694 2.418-1.694 3.778v4.555h2.26V7.697c0-.6.105-1.73 1.288-1.73s1.289 1.13 1.289 1.73v4.873H70V8.015c0-1.36-.018-2.825-1.694-3.778zM50.638 0c-.795 0-1.431.636-1.431 1.43 0 .794.636 1.43 1.431 1.43.794 0 1.43-.636 1.43-1.43A1.425 1.425 0 0 0 50.638 0zm6.592 3.778c-3.019 0-4.23 2.418-4.23 4.466 0 1.695.721 3.072 2.063 3.814.617.335 1.18.512 1.868.512.494 0 1.076-.124 1.678-.583 0 0 .262-1.606-1.502-1.606-.354 0-.561-.07-.879-.229-.636-.317-.968-1.006-.968-1.942 0-1.412.788-2.242 1.918-2.242.724 0 1.235.283 1.605.742.53.671.53 1.412.53 2.118v2.701c0 .795.019 1.571-.688 2.189-.601.512-1.447.547-1.924.547-.548 0-1.064-.1-2.025-.285l-.549 2.016c.406.141 1.25.459 2.769.459.829 0 2.188-.089 3.248-.937 1.412-1.13 1.43-2.612 1.43-3.919v-2.63c0-1.307-.07-2.684-1.147-3.866-.531-.584-1.537-1.325-3.197-1.325z"/>
</symbol><symbol id="icon-canvas" viewBox="0 0 40 44">
    <path d="M40.002 36.873c0 4.063-1.69 7.127-3.931 7.127H3.921C1.644 44-.01 41.003-.01 36.873c0-3.238 1.083-5.917 2.722-6.802L2.713.01h37.289l-.01 36.544c.006.104.01.21.01.319zM36.071 32.2c-.389 0-1.515 1.607-1.515 4.673 0 3.065 1.126 4.671 1.515 4.671s1.515-1.606 1.515-4.671c0-3.066-1.126-4.673-1.515-4.673zM5.129 29.745l31.154.009a2.63 2.63 0 0 1 1.303.505V2.467H5.129v27.278zm27.011 7.128c0-1.772.324-3.402.92-4.673H3.921c-.39 0-1.516 1.607-1.516 4.673 0 3.065 1.126 4.671 1.516 4.671H33.06c-.596-1.27-.92-2.899-.92-4.671z"/>
</symbol><symbol id="icon-cart-2" viewBox="0 0 25 23">
    <path d="M20.922 13.559L8.838 13.33l.44 1.555c.145.511.597.86 1.126.87l10.84.206-.045 2.394-10.84-.205a3.565 3.565 0 0 1-3.379-2.61L3.494 3.239a1.185 1.185 0 0 0-1.108-.811l-2.389-.044.045-2.395 2.389.045a3.58 3.58 0 0 1 3.352 2.52l2.372 8.367 11.157.212 3.457-8.739 2.221.883-4.068 10.282zm-4.093-4.99a2.996 2.996 0 0 0-.216-.248c-.916-.917-2.524-.918-3.441.002-.078.077-.15.161-.217.248l-.458.594-1.65-1.266.456-.599a4.48 4.48 0 0 1 1.966-1.469 1.79 1.79 0 0 1-.167-.749c0-.047.01-.092.013-.138-.926-.527-2.183-.413-2.954.36-.077.078-.15.162-.216.248l-.458.595-1.65-1.266.456-.599a4.483 4.483 0 0 1 1.965-1.47A1.794 1.794 0 0 1 11.882.268c.99 0 1.792.804 1.792 1.796 0 .268-.063.52-.168.748.34.132.664.31.971.527a1.78 1.78 0 0 1 .415-.053c.99 0 1.792.804 1.792 1.796 0 .268-.062.521-.168.749a4.474 4.474 0 0 1 1.964 1.468l.461.599-1.654 1.271-.458-.6zm-8 10.815c.989 0 1.791.804 1.791 1.796s-.802 1.796-1.791 1.796c-.99 0-1.792-.804-1.792-1.796s.802-1.796 1.792-1.796zm11.942 0c.99 0 1.792.804 1.792 1.796s-.802 1.796-1.792 1.796a1.794 1.794 0 0 1-1.791-1.796c0-.992.802-1.796 1.791-1.796z"/>
</symbol><symbol id="icon-cart" viewBox="0 0 20 19">
    <path d="M7.063 16.039c-.792 0-1.433.665-1.433 1.486 0 .82.641 1.486 1.433 1.486s1.432-.666 1.432-1.486c0-.821-.64-1.486-1.432-1.486zm10.987 1.486c0 .82-.641 1.486-1.432 1.486-.792 0-1.434-.666-1.434-1.486 0-.821.642-1.486 1.434-1.486.791 0 1.432.665 1.432 1.486zM5.585 12.859L2.796 2.684a.954.954 0 0 0-.887-.671l-1.911-.037.035-1.981 1.912.037C3.18.057 4.258.895 4.627 2.117l1.897 6.922 8.926.174 2.765-7.228 1.777.73-3.254 8.506-9.668-.19.353 1.287c.115.422.477.71.901.72l8.671.169-.037 1.981-8.67-.17c-1.27-.025-2.357-.892-2.703-2.159z"/>
</symbol><symbol id="icon-category" viewBox="0 0 51 44">
    <path d="M50.671 12.213l-15.569 31.02a1.237 1.237 0 0 1-1.665.553l-7.958-3.977-1.987-.182L12.724 43.2a1.242 1.242 0 0 1-1.57-.784l-1.349-4.048-1.273-.117a1.238 1.238 0 0 1-1.135-1.337l.399-4.819a1.21 1.21 0 0 1-.194-.337L.181 9.495a1.238 1.238 0 0 1 .787-1.566l9.076-3.013.214-2.578a1.24 1.24 0 0 1 1.339-1.132l7.924.571c.01-.004.017-.012.027-.016L22.882.655a1.241 1.241 0 0 1 1.57.785l.237.71 2.342.168.77-1.535c.295-.587 1.077-.846 1.666-.552l20.65 10.32c.613.307.862 1.05.554 1.662zM13.119 40.458l4.213-1.398-4.827-.444.614 1.842zM2.929 9.889L8.3 26.001l1.522-18.4-6.893 2.288zm9.701-6.111L9.973 35.883l9.392.871-6.579-3.287a1.238 1.238 0 0 1-.553-1.663L25.827 4.717 12.63 3.778zm16.835-.777L15.008 31.806l18.431 9.21 14.457-28.804-18.431-9.211zm3.251 31.061l-11.966-5.98a1.238 1.238 0 0 1-.554-1.662 1.243 1.243 0 0 1 1.666-.553l11.966 5.98a1.237 1.237 0 0 1-.164 2.283c-.302.1-.642.085-.948-.068zM22.574 21.683a1.241 1.241 0 0 1 1.665-.552l11.966 5.979a1.238 1.238 0 0 1-.164 2.283c-.302.1-.641.086-.948-.068l-11.965-5.979a1.237 1.237 0 0 1-.554-1.663zm2.586-4.343a1.239 1.239 0 0 1 .068-.946l4.264-8.495a1.24 1.24 0 0 1 1.666-.553l11.965 5.979c.294.147.519.404.623.716.103.312.079.652-.069.946l-4.263 8.496a1.239 1.239 0 0 1-1.666.553l-11.966-5.98a1.239 1.239 0 0 1-.622-.716zm12.589 3.926l3.152-6.281-9.745-4.87-3.152 6.281 9.745 4.87z"/>
</symbol><symbol id="icon-check-round" viewBox="0 0 30 30">
    <path d="M14.896.167c2.618 0 5.039.655 7.266 1.963a14.684 14.684 0 0 1 5.303 5.303c1.308 2.226 1.963 4.648 1.963 7.265 0 2.618-.655 5.04-1.963 7.266a14.684 14.684 0 0 1-5.303 5.303c-2.227 1.308-4.648 1.963-7.266 1.963-2.617 0-5.039-.655-7.265-1.963a14.684 14.684 0 0 1-5.303-5.303C1.019 19.738.365 17.316.365 14.698c0-2.617.654-5.039 1.963-7.265A14.684 14.684 0 0 1 7.631 2.13C9.857.822 12.279.167 14.896.167zm0 2.813c-2.109 0-4.062.527-5.859 1.582A11.803 11.803 0 0 0 4.76 8.839a11.368 11.368 0 0 0-1.582 5.859c0 2.11.527 4.063 1.582 5.86a11.81 11.81 0 0 0 4.277 4.277 11.368 11.368 0 0 0 5.859 1.582c2.11 0 4.063-.527 5.86-1.582a11.818 11.818 0 0 0 4.277-4.277 11.37 11.37 0 0 0 1.582-5.86c0-2.109-.527-4.062-1.582-5.859a11.81 11.81 0 0 0-4.277-4.277 11.37 11.37 0 0 0-5.86-1.582zm8.203 7.617a.726.726 0 0 1 .235.527.555.555 0 0 1-.235.469l-10.078 10.02a.729.729 0 0 1-.527.234.558.558 0 0 1-.469-.234L6.693 16.28a.729.729 0 0 1-.234-.527c0-.195.078-.351.234-.469l1.348-1.347a.634.634 0 0 1 .469-.176c.195 0 .371.059.527.176l3.457 3.574 8.32-8.262a.637.637 0 0 1 .469-.176.73.73 0 0 1 .527.235l1.289 1.289z"/>
</symbol><symbol id="icon-checked" viewBox="0 0 8 6">
    <path d="M7.419-.002a.535.535 0 0 0-.368.175l-4.16 4.47L.927 2.771a.53.53 0 0 0-.768-.008.574.574 0 0 0 .032.833l2.355 2.246a.53.53 0 0 0 .758-.024L7.832.951a.574.574 0 0 0-.009-.794.533.533 0 0 0-.404-.159z"/>
</symbol><symbol id="icon-chevron-bottom-2" viewBox="0 0 16 9">
    <path d="M15.998.791a.799.799 0 0 0-.227-.562.76.76 0 0 0-1.095 0L8.003 7.085 1.319.229a.76.76 0 0 0-1.094 0 .81.81 0 0 0 0 1.123l7.231 7.419a.765.765 0 0 0 1.096-.001l7.22-7.418a.801.801 0 0 0 .226-.561z"/>
</symbol><symbol id="icon-chevron-bottom" viewBox="0 0 8 5">
    <path d="M6.686.231l-2.673 2.84L1.288.283A.74.74 0 0 0 .209.294a.82.82 0 0 0 .01 1.126l3.269 3.344a.74.74 0 0 0 1.079-.01l3.209-3.408a.82.82 0 0 0-.01-1.125.742.742 0 0 0-1.08.01z"/>
</symbol><symbol id="icon-chevron-left" viewBox="0 0 4 8">
    <style>
        .st0{fill:#f2f4f6}
    </style>
    <path id="arrow-&#x43A;&#x43E;&#x43F;&#x438;&#x44F;-2" class="st0" d="M3.6 0c.1 0 .2 0 .3.1.1.1.1.4 0 .5L.9 4l3 3.3c.1.2.1.4 0 .6-.1.1-.4.1-.5 0L.1 4.3C0 4.2 0 4.1 0 4c0-.1 0-.2.1-.3L3.4.1c.1-.1.2-.1.2-.1z"/>
</symbol><symbol id="icon-chevron-right" viewBox="0 0 4 8">
    <path d="M.352 7.999a.335.335 0 0 1-.25-.113.417.417 0 0 1 0-.549l3.047-3.343L.102.645a.417.417 0 0 1 0-.548.331.331 0 0 1 .499 0L3.898 3.72a.412.412 0 0 1 0 .549L.601 7.886a.334.334 0 0 1-.249.113z"/>
</symbol><symbol id="icon-chevron-top-2" viewBox="0 0 16 9">
    <path d="M15.998 8.209a.799.799 0 0 1-.227.562.76.76 0 0 1-1.095-.001L8.003 1.915 1.319 8.771a.76.76 0 0 1-1.094 0 .81.81 0 0 1 0-1.123L7.456.229A.765.765 0 0 1 8.552.23l7.22 7.418a.801.801 0 0 1 .226.561z"/>
</symbol><symbol id="icon-close" viewBox="0 0 17 17">
    <path d="M9.904 8.493l6.804-6.8A.993.993 0 1 0 15.302.288l-6.804 6.8-6.803-6.8A.995.995 0 0 0 .289 1.693l6.804 6.8-6.804 6.8a.993.993 0 1 0 1.406 1.405l6.803-6.8 6.804 6.8a.992.992 0 1 0 1.406-1.405l-6.804-6.8z"/>
</symbol><symbol id="icon-cooperation-icon" viewBox="0 0 160.5 132.5">
    <path d="M15.4 65.8c.7.7 1.6 1.1 2.6 1.1.6 0 1.3-.2 1.8-.5l12.4 11.9-3.7 3.8c-3.9 3.9-3.9 10.2 0 14.1l1.1 1.1c1.6 1.6 3.8 2.6 6.1 2.8.2 2.3 1.2 4.4 2.8 6.1l1.1 1.1c1.6 1.6 3.8 2.6 6 2.8.2 2.2 1.1 4.4 2.8 6.1l1.1 1.1c1.6 1.6 3.8 2.6 6 2.8.2 2.2 1.1 4.4 2.8 6l1.1 1.1c1.9 1.9 4.4 2.9 7.1 2.9 2.7 0 5.2-1 7.1-2.9l4-4 6.4 6.4c1.9 1.9 4.4 2.9 7.1 2.9 2.7 0 5.2-1 7.1-2.9l1.1-1.1c1.7-1.7 2.6-3.8 2.8-5.9 2.2-.3 4.3-1.2 5.9-2.9l1.1-1.1c1.6-1.6 2.6-3.7 2.8-6 2.2-.2 4.3-1.1 6-2.8l1.1-1.1c1.7-1.7 2.6-3.8 2.8-6 2.3-.2 4.4-1.2 6-2.8l1.1-1.1c1.9-1.9 2.9-4.4 2.9-7.1 0-2.7-1-5.2-2.9-7.1l-4.2-4.2 15-15.1.1.1c.7.7 1.7 1.1 2.6 1.1 1 0 1.9-.4 2.6-1.1L159.4 51c.7-.7 1.1-1.6 1.1-2.6s-.4-1.9-1.1-2.6L114.5 1.1c-1.5-1.4-3.8-1.4-5.3 0L95 15.4c-.7.7-1.1 1.6-1.1 2.6s.4 1.9 1.1 2.6l3.2 3.2-.9.9c-1.7 1.7-3.5 2.6-5.1 2.6-2.5-.1-4.5-2.2-4.5-2.2l-.2-.2-2.3-2.3c-2.3-2.3-5.4-3.6-8.7-3.6-3.3 0-6.4 1.3-8.7 3.6l-.5.5-2.4-2.2c1.3-1.5 1.2-3.7-.2-5L50.3 1.5C49.6.8 48.6.4 47.7.4c-1 0-1.9.4-2.6 1.1l-44 44.7c-1.4 1.5-1.4 3.8 0 5.2l14.3 14.4zM33.8 91c-1-1-1-2.6 0-3.6l16.5-16.5c.5-.5 1.1-.7 1.8-.7s1.3.3 1.8.7L55 72c.5.5.7 1.1.7 1.8s-.3 1.3-.7 1.8L38.5 92.1c-.9 1-2.7 1-3.6 0L33.8 91zm9.9 9.9c-.5-.5-.7-1.1-.7-1.8s.3-1.3.7-1.8l16.5-16.5c.5-.5 1.1-.7 1.8-.7s1.3.3 1.8.7l1.1 1.1c1 1 1 2.6 0 3.6l-9 9-7.5 7.5c-1 .9-2.6 1-3.6 0l-1.1-1.1zm10 10c-1-1-1-2.6 0-3.6l7.5-7.5 5.3-5.3c.5-.5 1.1-.7 1.8-.7s1.3.3 1.8.7l1.1 1.1c.5.5.7 1.1.7 1.8s-.3 1.3-.7 1.8L58.4 112c-1 1-2.6 1-3.6 0l-1.1-1.1zm14.7 11c-1 1-2.7 1-3.6 0l-1.1-1.1c-1-1-1-2.6 0-3.6l9.1-9.1c.5-.5 1.1-.7 1.8-.7s1.3.3 1.8.7l1.1 1.1c1 1 1 2.6 0 3.6l-9.1 9.1zm25.7 1.3l-1.1 1.1c-.5.5-1.1.7-1.8.7s-1.3-.3-1.8-.7l-6.5-6.4c1.9-2 2.8-4.5 2.7-7.1.2.6.5 1.1.9 1.6l7.4 7.4c.2.2.4.4.6.5.5.9.4 2.1-.4 2.9zM111.9 9l39.7 39.4-9.1 9.1L102.8 18l9.1-9zM76.4 26.4c1.3 0 2.6.5 3.5 1.4l2.3 2.2c.8.8 4.4 4.5 9.7 4.7 3.8.1 7.4-1.5 10.7-4.7l.9-.9 31 30.9-15 15-33.1-33c.2-1.2-.1-2.4-.9-3.3-1.4-1.5-3.8-1.5-5.3-.1L66.4 51.7c-1.9 1.9-5 1.9-7 0L57.7 50c-.9-.9-1.4-2.2-1.4-3.5 0-1.3.5-2.6 1.4-3.5l15.2-15.3c.9-.8 2.2-1.3 3.5-1.3zm-24 11.4c-2.3 2.3-3.6 5.4-3.6 8.7s1.3 6.4 3.6 8.7l1.7 1.7c2.4 2.4 5.6 3.6 8.8 3.6 3.2 0 6.3-1.2 8.7-3.6l9.9-9.5 42.3 42.2c.5.5.7 1.1.7 1.8s-.3 1.3-.7 1.8l-1.1 1.1c-.5.5-1.1.7-1.8.7-.6 0-1.2-.2-1.7-.7 0 0 0-.1-.1-.1l-9.7-9.7c-1.5-1.4-3.8-1.4-5.3 0-1.4 1.5-1.4 3.8 0 5.3l9.4 9.4c.1.1.1.2.2.3 0 0 .1 0 .1.1.9 1 .9 2.6-.1 3.5l-1.1 1.1c-.9.9-2.5 1-3.5.1 0 0 0-.1-.1-.1l-8.1-8.1c-1.5-1.4-3.8-1.4-5.3 0-.7.7-1.1 1.7-1.1 2.6 0 1 .4 1.9 1.1 2.6l7.9 7.9c.1.1.1.2.2.3 0 0 .1 0 .1.1.4.5.7 1.1.7 1.7 0 .7-.3 1.3-.7 1.8l-1.1 1.1c-.5.5-1.1.7-1.8.7-.5 0-.8-.1-1.2-.3-.2-.2-.4-.4-.5-.6l-7.5-7.3c-1.5-1.4-3.8-1.4-5.2.1-.6.6-.9 1.4-1 2.2-.3-2-1.2-3.9-2.8-5.4l-1.1-1.1c-.9-.9-1.8-1.5-2.9-2 .4-1.1.7-2.3.7-3.5 0-2.7-1-5.2-2.9-7.1l-1.1-1.1c-.9-.9-1.8-1.5-2.9-2 1.3-3.6.6-7.7-2.3-10.6l-1.1-1.1c-1.6-1.6-3.8-2.6-6.1-2.8-.2-2.3-1.2-4.4-2.8-6.1l-1.1-1.1c-1.9-1.9-4.4-2.9-7.1-2.9-2.7 0-5.2 1-7.1 2.9l-7.5 7.5-12.2-11.4 34.4-35 2.3 2.1-9.5 9.5zM47.7 9.4l9.1 9.1L18 57.9l-9-9L47.7 9.4z"/>
    <path d="M47.5 22.4c1 0 1.9-.4 2.6-1.1.7-.7 1.1-1.7 1.1-2.6 0-1-.4-1.9-1.1-2.6-1.4-1.4-3.9-1.4-5.3 0-.7.7-1.1 1.7-1.1 2.6 0 1 .4 1.9 1.1 2.6.8.7 1.7 1.1 2.7 1.1z"/>
    <path d="M146.1 47.9c0-1-.4-1.9-1.1-2.6-1.4-1.4-3.9-1.4-5.3 0-.7.7-1.1 1.7-1.1 2.6 0 1 .4 1.9 1.1 2.6.7.7 1.7 1.1 2.6 1.1 1 0 1.9-.4 2.6-1.1.8-.6 1.2-1.6 1.2-2.6z"/>
</symbol><symbol id="icon-data" viewBox="0 0 28 31">
    <path d="M26.295 31.014H1.743c-.951 0-1.722-.78-1.722-1.742V1.722c0-.961.771-1.741 1.722-1.741h24.552c.951 0 1.722.78 1.722 1.741v27.55c0 .962-.771 1.742-1.722 1.742zM24.573 3.463H3.465v24.068h21.108V3.463zm-4.276 7.905H7.645V7.886h12.652v3.482zm0 6.965H7.645V14.85h12.652v3.483z"/>
</symbol><symbol id="icon-del" viewBox="0 0 21 26">
    <path d="M18.985 5.15v19.106c0 .957-.766 1.74-1.703 1.74H3.718c-.937 0-1.703-.783-1.703-1.74V5.15H0V3.411h5.335v-1.74c0-.928.738-1.681 1.646-1.681h7.038c.908 0 1.646.725 1.646 1.681v1.74H21V5.15h-2.015zM13.934 1.7H7.038v1.682h6.896V1.7zm3.348 3.45H3.718v19.048h13.564V5.15zM8.23 21.241H6.527V7.876H8.23v13.365zm3.121 0H9.649V7.876h1.702v13.365zm3.122 0H12.77V7.876h1.703v13.365z"/>
</symbol><symbol id="icon-delivery-get" viewBox="0 0 48 48">
    <path d="M46 39c0 .6-.4 1-1 1h-6c.6-.8 1-1.9 1-3v-7h-2v7c0 1.7-1.3 3-3 3H13c-1.7 0-3-1.3-3-3V15c0-1.7 1.3-3 3-3v9c0 .6.4 1 1 1h5c.6 0 1-.4 1-1V10h-7c-2.8 0-5 2.2-5 5v22c0 1.1.4 2.2 1 3H3c-.6 0-1-.4-1-1H0c0 1.7 1.3 3 3 3h3.6c-.4.6-.6 1.3-.6 2 0 2.2 1.8 4 4 4 1.9 0 3.4-1.3 3.9-3h20.3c.4 1.7 2 3 3.9 3 2.2 0 4-1.8 4-4 0-.7-.2-1.4-.6-2H45c1.7 0 3-1.3 3-3h-2zM18 20h-3v-8h3v8zm-4.6 22h21.1c-.2.3-.3.6-.4 1H13.9c-.1-.4-.3-.7-.5-1zM10 46c-1.1 0-2-.9-2-2s.9-2 2-2 2 .9 2 2-.9 2-2 2zm30-2c0 1.1-.9 2-2 2s-2-.9-2-2 .9-2 2-2 2 .9 2 2z"/>
    <path d="M25 28h1v3.6l-1.3-1.3-1.4 1.4 6 6c.2.2.4.3.7.3.3 0 .5-.1.7-.3l6-6-1.4-1.4-1.3 1.3V28h7c1.7 0 3-1.3 3-3V3c0-1.7-1.3-3-3-3H30h-.1c-.1 0-.2 0-.3.1-.1 0-.2.1-.3.2l-7 7c-.2.2-.3.4-.3.7v17c0 1.7 1.3 3 3 3zm3-19c1.7 0 3-1.3 3-3V2h10c.6 0 1 .4 1 1v22c0 .6-.4 1-1 1h-8c-.6 0-1 .4-1 1v6.6l-2 2-2-2V27c0-.6-.4-1-1-1h-2c-.6 0-1-.4-1-1V8.4l5-5V6c0 .6-.4 1-1 1h-1v2h1z"/>
    <path d="M33 24c3.9 0 7-3.1 7-7s-3.1-7-7-7-7 3.1-7 7 3.1 7 7 7zm0-12c2.8 0 5 2.2 5 5s-2.2 5-5 5-5-2.2-5-5 2.2-5 5-5z"/>
    <path d="M31.3 19.7c.2.2.4.3.7.3.3 0 .5-.1.7-.3l4-4-1.4-1.4-3.3 3.3-1.3-1.3-1.4 1.4 2 2z"/>
    <path d="M12 36h2v2h-2z"/>
    <path d="M16 36h2v2h-2z"/>
    <path d="M20 36h2v2h-2z"/>
</symbol><symbol id="icon-delivery-icon-2" viewBox="0 0 88 72">
    <path d="M23.8.038c-1 .1-1.8 1-1.8 2v38h-6v-1c0-1.1-.9-2-2-2H1.8c-1 .1-1.8 1-1.8 2v28c0 1.1.9 2 2 2h12c1.1 0 2-.9 2-2v-2.9l15.1 7.7c.3.1.6.2.9.2h28c.4 0 .7-.1 1-.3l24.2-14.2c2.1-1.2 2.8-3.5 2.8-5.5 0-3.8-3.2-7-7-7-.3 0-.7 0-1 .1v-43.1c0-1.1-.9-2-2-2H23.8zm2.2 4h50v42.7l-6.7 3.4c-1.1-2.4-3.6-4.1-6.3-4.1H44c-1.2 0-2.7-1.1-4.9-2.7s-5.1-3.3-9.1-3.3h-4v-36zm14.8 4c-1 .1-1.8 1-1.8 2v8c0 1.1.9 2 2 2h20c1.1 0 2-.9 2-2v-8c0-1.1-.9-2-2-2H40.8zm2.2 4h16v4H43v-4zm-39 29h8v24H4v-24zm12 3h14c2.9 0 4.8 1.2 6.8 2.6 2 1.4 4.1 3.4 7.2 3.4h19c1.7 0 3 1.3 3 3s-1.3 3-3 3H45c-1.1 0-2 .9-2 2s.9 2 2 2h18.1c3.4 0 6.3-2.5 6.9-5.7l9.9-5.1c.3-.1.7-.2 1.2-.2 1.7 0 3 1.3 3 3 0 1.1-.4 1.9-.8 2.1l-23.8 13.9h-27l-16.5-8.4v-15.6z"/>
</symbol><symbol id="icon-delivery-icon" viewBox="0 0 109.6 95.9">
    <path d="M95.9 82.2c0 1.3-1 2.3-2.3 2.3H91c-1-3.9-4.6-6.9-8.8-6.9-4.3 0-7.8 2.9-8.8 6.9H32V43.4c0-1.3 1-2.3 2.3-2.3h16v-4.6h-16c-3.8 0-6.9 3.1-6.9 6.9v9.1H16c-8.8 0-16 7.2-16 16v18.3c0 1.3 1 2.3 2.3 2.3h4.9C8.2 93 11.8 96 16 96s7.8-2.9 8.8-6.9h48.6c1 3.9 4.6 6.9 8.8 6.9 4.3 0 7.8-2.9 8.8-6.9h2.6c3.8 0 6.9-3.1 6.9-6.9V59.4h-4.6v22.8zM16 91.4c-2.5 0-4.6-2-4.6-4.6s2-4.6 4.6-4.6 4.6 2 4.6 4.6-2.1 4.6-4.6 4.6zm0-13.7c-4.3 0-7.8 2.9-8.8 6.9H4.6v-16c0-6.3 5.1-11.4 11.4-11.4h11.4v27.4h-2.6c-1-4-4.6-6.9-8.8-6.9zm66.2 13.7c-2.5 0-4.6-2-4.6-4.6s2-4.6 4.6-4.6 4.6 2 4.6 4.6-2 4.6-4.6 4.6z"/>
    <path d="M98.2 0h-32c-6.3 0-11.4 5.1-11.4 11.4v32c0 6.1 2.5 10.2 6.9 11.2V64c0 .9.5 1.7 1.3 2.1.3.1.6.2 1 .2.5 0 1.1-.2 1.5-.5l13.1-10.9h19.7c6.3 0 11.4-5.1 11.4-11.4v-32C109.6 5.1 104.5 0 98.2 0zM70.8 4.6h6.9v13.7h-6.9V4.6zm34.3 38.8c0 3.8-3.1 6.9-6.9 6.9H77.7c-.5 0-1.1.2-1.5.5l-10 8.3v-6.5c0-1.3-1-2.3-2.3-2.3-1.1 0-4.6 0-4.6-6.9v-32c0-3.8 3.1-6.9 6.9-6.9v16c0 1.3 1 2.3 2.3 2.3h11.4c1.3 0 2.3-1 2.3-2.3v-16h16c3.8 0 6.9 3.1 6.9 6.9v32z"/>
    <path d="M89.1 41.1h11.4v4.6H89.1z"/>
    <path d="M89.1 32h11.4v4.6H89.1z"/>
    <path d="M36.5 75.4h4.6V80h-4.6z"/>
    <path d="M45.7 75.4h4.6V80h-4.6z"/>
    <path d="M54.8 75.4h4.6V80h-4.6z"/>
</symbol><symbol id="icon-delivery-plain" viewBox="0 0 120.2 121.7">
    <path d="M116.9 18c4.3-4.3 4.4-11 .4-15.1-1.9-1.9-4.5-3-7.2-3-2.9 0-5.7 1.2-7.8 3.3l-9.3 10-33.1-10-6.9 6.9c-.9.9-1.3 2-1.3 3.2 0 1.2.5 2.4 1.3 3.2l.3.3 24 13.2-3.5 3.8c-4.6-3-9.8-5.2-15.4-6.5-3.5-.8-7.1-1.2-10.7-1.2-1.8 0-3.6.1-5.3.3l-.2-.2c-.1.1-.2.1-.3.2C22.1 28.9 5.8 43.3 1.2 63.3c-2.8 12.4-.7 25.2 6.1 36s17.4 18.3 29.8 21.1c3.5.8 7.1 1.2 10.7 1.2 22.4 0 41.6-15.3 46.5-37.2.9-3.9 1.3-7.8 1.2-11.7.3-1 .2-2.1-.2-3.3-.7-7.4-3.1-14.6-7.1-21-.5-.8-1-1.5-1.5-2.3l3.6-3.3 13.3 24.1.3.3c.9.9 2 1.3 3.2 1.3 1.2 0 2.4-.5 3.2-1.3l6.9-6.9-10-33.3 9.7-9zm-93 90.2c-4.5-3.2-8.4-7.2-11.5-12.1C7 87.6 5 77.6 6.5 67.6c2.7.7 5.4 1.8 6.4 2.5 0 .3-.1.6-.1.8-.4 2.6-1 6.5 2.2 8.9 2.8 2 5.4.1 6.5-.9.5.4 1 .8 1.5 1.1.8.6 2.3 1.7 2.8 2.3-.2.6-.4 1.3-.6 1.9-.9 2.6-1.9 5.3-.1 7.2.6.8 2.5 4.3 2.9 5.5 0 .4 0 .9.1 1.5 0 .6.1 2.1 0 2.7 0 0-3.6 4.6-3.4 5.7l-.8 1.4zm64.6-25c-4.4 19.1-21.1 32.5-40.7 32.5-3.1 0-6.3-.4-9.3-1.1-3.8-.9-7.3-2.2-10.6-4 2.9-2.5 5.5-6.5 5.5-6.5.9-1.5.8-3.5.7-5.9 0-.4-.1-.8 0-1v.3c.5-2.1-2.4-7-3.8-9.1.1-.6.5-1.4.7-2 .4-1 .7-2.1 1-3.1.8-3.6-2.5-6.1-5.2-8-.8-.6-1.6-1.1-1.9-1.5-1.2-1.3-3.2-2.3-6.2 0 .1-.6.2-1.4.2-1.8.1-.6.2-1.3.3-1.9.3-3.5-3.4-6.2-11.2-8.2 4.2-14 15.3-24.6 29.1-28.2-.6 1.5-1.1 3.2-1.3 5.2-.3 1.1-.5 2.1-.7 3.1-.6 3.7-1.3 7.9 4.1 10.3 2.9 1.3 4.9 1.5 6.6 1.7.7.1 1.3.1 1.9.3.2.9.1 2.8 0 3.5-.1 1.1-.1 2.2.2 3.2.4 2.4 2.6 11.3 10.8 17-1.2.7-2.7 1.4-4 1.6l-2.1.3c-2.8.4-6.7.8-8.3 5.3-.7 2-.3 3.4.3 4.3 1.3 2.1 3.8 2.5 5.6 2.7.3 0 .7.1 1 .1 1.1.8 4.7 3.2 8.3 3.2 1.7 0 3.3-.5 4.8-1.8.6-.5 3.5-.5 4.8-.5 2.9 0 5.6.1 7.4-1.7.9-.9 1.3-2 1.3-3.3-.1-2.5 4.7-5.2 8.6-7.4.9-.5 1.9-1.1 2.8-1.6-.1 1.3-.4 2.7-.7 4zm1-11.6c-.9 1.1-4 2.9-6 4-5.2 2.9-11 6.2-11.6 11.6-.8.1-1.8 0-2.6 0-3.1 0-6.5-.1-8.9 2-1 .9-4-.5-5.8-1.8-1-.8-2.1-.9-3.4-1.1.5-.1 1.2-.2 2.2-.4.7-.1 1.6-.2 2.5-.4 2.7-.5 9.7-3.5 10.3-7.3.2-1.6-.5-3.1-2-3.9-8.9-4.7-10.3-14.3-10.4-14.6l-.1-.8v-.6c.2-2.9.5-8.2-3.7-9.5-1.4-.4-2.6-.5-3.6-.7-1.5-.2-2.7-.3-4.7-1.2-.7-.3-.9-.5-.9-.5-.2-.4.1-2.1.3-3.3.2-1 .3-2.1.5-3.4.4-3.5 1.8-5.7 3.2-7.2 1-.1 2-.1 3.1-.1 3.1 0 6.3.4 9.3 1.1 4.5 1 8.7 2.8 12.6 5.1l-.3.3c-.5.5-1 1.1-1.4 1.7l-10.7-2.8-4.7 4.7c-.8.8-1.2 1.8-1.2 3 0 1.1.4 2.2 1.2 3l.3.3 12.4 6.3.4.4 6.3 12.4.3.3c.8.8 1.8 1.2 3 1.2 1.1 0 2.2-.4 3-1.2l4.7-4.7L80 52.3c.6-.4 1.1-.9 1.6-1.4l.6-.6c.3.5.6.9.9 1.4 3.9 6.1 6 12.9 6.4 19.9zm20.9-12.8l-2.9 2.9-15.7-28.4-14.3 13.2-.1.1c-.7.7-1.4 1.2-2.2 1.6L73 49.3l3.1 12.1-.5.5-5.2-10.2-1.8-1.8-10.2-5.2.5-.5 12 3.1 1.1-2.2c.4-.8.9-1.6 1.6-2.2l13.2-14.4L58.7 13l2.9-2.9 33.2 10 11.7-12.5c1-1 2.2-1.5 3.5-1.5 1.1 0 2.2.4 3 1.2 1.7 1.7 1.6 4.6-.3 6.5l-12.4 11.6 10.1 33.4z"/>
</symbol><symbol id="icon-delivery-size" viewBox="0 0 105.6 119.8">
    <path d="M95.8 65.1c-.6 0-1.2.2-1.7.7L75.8 81.5c0-1.3-1-2.3-2.3-2.3H26.7c-.6 0-1.2.2-1.6.7L2.3 102.5l3.3 3.3 22.1-22.1h43.1c-.3 1.2-.8 2.5-1.7 3.4l-.6.5c-.7.5-1.5.8-2.6.8H45v4.7h21c2 0 3.6-.5 4.9-1.3h.1c.6-.4 1.2-.9 1.7-1.5l22.9-19.4c2 3.1 1.5 7.3-1.4 9.8l-21.7 21.7H34.1c-.6 0-1.2.2-1.6.7L19 116.5l3.3 3.3L35 107.1h38.3c.6 0 1.2-.2 1.6-.7L97.4 84c2.7-2.7 4-5.7 4-8.9 0-4-2.1-7.4-4-9.3-.4-.5-1-.7-1.6-.7z"/>
    <path d="M39.7 48.2h-7.5c-1.3 0-2.3 1-2.3 2.3V58c0 1.3 1 2.3 2.3 2.3h7.5c1.3 0 2.3-1 2.3-2.3v-7.5c.1-1.2-1-2.3-2.3-2.3zm-2.3 7.5h-2.8v-2.8h2.8v2.8z"/>
    <path d="M44.9 48.2h19.6v4.7H44.9z"/>
    <path d="M44.9 55.7H57v4.7H44.9z"/>
    <path d="M104.9 5.9L99 0l-3.3 3.3 2 1.9h-71c-3.3 0-6.1 2.7-6.1 6.1V65H8l1.9-1.9-3.3-3.3-5.9 5.9c-.9.9-.9 2.4 0 3.3l5.9 6 3.3-3.3-2-1.9h71c3.3 0 6.1-2.7 6.1-6.1V16.5H62.6V9.9h35l-2 1.9 3.3 3.3 5.9-5.9c1-.9 1-2.3.1-3.3zm-57.2 4H58v6.5H47.7V9.9zm0 11.2H58v2.8H47.7v-2.8zm-22.5-9.8c0-.8.6-1.4 1.4-1.4H43v6.5H25.2v-5.1zm55.2 9.8v42.5c0 .8-.6 1.4-1.4 1.4H25.2V21.1H43v5.1c0 1.3 1 2.3 2.3 2.3h15c1.3 0 2.3-1 2.3-2.3v-5.1h17.8z"/>
</symbol><symbol id="icon-edit" viewBox="0 0 21 21">
    <path d="M18.354 7.555l-.006-.005 2.651-2.655L16.114.004l-3.241 3.245-.62.609.005.007-10.027 10.04-.586.577.01.009-1.668 5.136 1.384 1.386 5.093-1.616.021.021.041-.04.016-.005.575-.576.63-.619-.006-.007 10-10.014.613-.602zm.145-2.66L17.11 6.286l-2.363-2.41 1.367-1.369 2.385 2.388zM2.072 18.934l.98-3.018 2.024 2.065-3.004.953zm2.068-4.436l9.357-9.37 2.363 2.411-9.357 9.369-2.363-2.41z"/>
</symbol><symbol id="icon-factory-icon" viewBox="0 0 61 61">
    <style>
        .st0{fill:#42746e}
    </style>
    <path class="st0" d="M59.5 32H58V15.5c0-.8-.7-1.5-1.5-1.5h-8c-.8 0-1.5.7-1.5 1.5V32h-2V18.5c0-.6-.4-1.2-.9-1.4-.6-.2-1.2-.1-1.6.3L31 28.9V18.5c0-.6-.4-1.2-.9-1.4-.6-.2-1.2-.1-1.6.3L17 28.9V18.5c0-.6-.4-1.2-.9-1.4-.6-.2-1.2-.1-1.6.3l-14 14c-.3.3-.5.7-.5 1.1v27c0 .8.7 1.5 1.5 1.5h58c.8 0 1.5-.7 1.5-1.5v-26c0-.8-.7-1.5-1.5-1.5zM42 58H3V33.1l11-11v10.4c0 .6.4 1.2.9 1.4.6.2 1.2.1 1.6-.3L28 22.1v10.4c0 .6.4 1.2.9 1.4.6.2 1.2.1 1.6-.3L42 22.1V58zm8-41h5v15h-5V17zm8 41H45V35h13v23z"/>
    <path class="st0" d="M52 13V7.5C52 5.6 50.4 4 48.5 4H23v3h25.5c.3 0 .5.2.5.5V13h3z"/>
    <path class="st0" d="M53 6.5V13h3V6.5C56 2.9 53.1 0 49.5 0H19v3h30.5C51.4 3 53 4.6 53 6.5z"/>
    <path class="st0" d="M11 4h9v3h-9z"/>
    <path class="st0" d="M5 4h3v3H5z"/>
    <path class="st0" d="M0 4h3v3H0z"/>
    <path class="st0" d="M5 0h12v3H5z"/>
    <path class="st0" d="M0 0h3v3H0z"/>
    <path class="st0" d="M12.5 35h-6c-.8 0-1.5.7-1.5 1.5v6c0 .8.7 1.5 1.5 1.5h6c.8 0 1.5-.7 1.5-1.5v-6c0-.8-.7-1.5-1.5-1.5zM11 41H8v-3h3v3z"/>
    <path class="st0" d="M25.5 35h-6c-.8 0-1.5.7-1.5 1.5v6c0 .8.7 1.5 1.5 1.5h6c.8 0 1.5-.7 1.5-1.5v-6c0-.8-.7-1.5-1.5-1.5zM24 41h-3v-3h3v3z"/>
    <path class="st0" d="M32.5 44h6c.8 0 1.5-.7 1.5-1.5v-6c0-.8-.7-1.5-1.5-1.5h-6c-.8 0-1.5.7-1.5 1.5v6c0 .8.7 1.5 1.5 1.5zm1.5-6h3v3h-3v-3z"/>
    <path class="st0" d="M12.5 47h-6c-.8 0-1.5.7-1.5 1.5v6c0 .8.7 1.5 1.5 1.5h6c.8 0 1.5-.7 1.5-1.5v-6c0-.8-.7-1.5-1.5-1.5zM11 53H8v-3h3v3z"/>
    <path class="st0" d="M25.5 47h-6c-.8 0-1.5.7-1.5 1.5v6c0 .8.7 1.5 1.5 1.5h6c.8 0 1.5-.7 1.5-1.5v-6c0-.8-.7-1.5-1.5-1.5zM24 53h-3v-3h3v3z"/>
    <path class="st0" d="M32.5 56h6c.8 0 1.5-.7 1.5-1.5v-6c0-.8-.7-1.5-1.5-1.5h-6c-.8 0-1.5.7-1.5 1.5v6c0 .8.7 1.5 1.5 1.5zm1.5-6h3v3h-3v-3z"/>
</symbol><symbol id="icon-features-1" viewBox="0 0 74 75">
    <path d="M60 32c.4.1.8.3 1 .7l12.7 19.6c.2.4.3.8.2 1.2-.1.4-.3.8-.7 1L68 58c-.1.2-.3.4-.5.5-.2.1-.5.2-.7.2l-24.5 16c-.3.2-.6.3-.9.3-.5 0-1-.3-1.3-.7L27.8 55.4h-18c-2.6 0-4.7-2.1-4.7-4.7v-29h-.4C2.1 21.7 0 19.6 0 17v-2.6c0-2.6 2.1-4.7 4.7-4.7h.7C6 7.8 7.7 6.4 9.8 6.4h4V1.6c0-.9.7-1.6 1.6-1.6.9 0 1.6.7 1.6 1.6v4.8h34.9V1.6c0-.9.7-1.6 1.6-1.6S55 .7 55 1.6v4.8h2.5c2.6 0 4.7 2.1 4.7 4.7v15c0 2.6-2.1 4.7-4.7 4.7H55v3.4c0 .2 0 .4-.1.6l3.9-2.6c.4-.2.8-.3 1.2-.2zM5.1 12.9h-.4c-.8 0-1.5.7-1.5 1.5V17c0 .8.7 1.5 1.5 1.5h.4v-5.6zm36.8 58.3l2.7-1.7-11-17-2.7 1.7 11 17zM8.3 50.7c0 .8.7 1.5 1.5 1.5h18.3l7.2-4.7h-27v3.2zm49.2-23.1c.8 0 1.5-.7 1.5-1.5v-15c0-.8-.7-1.5-1.5-1.5H9.8c-.8 0-1.5.7-1.5 1.5v33.3h31.9l6-3.9H30.9c-.7 0-1.3-.4-1.5-1.1l-5.7-17c-.2-.5-.1-1 .2-1.4.3-.4.8-.7 1.3-.7h21.5c.9 0 1.6.7 1.6 1.6v4.3c0 .8.7 1.5 1.5 1.5h7.7zm-6.4 9.6l2.3-1.5c-.9 0-1.6-.7-1.6-1.6v-3.4h-2.1c-2.6 0-4.7-2.1-4.7-4.7v-2.7H27.4L32 37.2h19.1zm2.2 2.4l-1.1.7v.1h-.1L36.2 50.7l11 17 17.1-11.1-11-17zM67 54.9l3.2-2.1-11-17-3.2 2.1 11 17zM37.5 17.2c-1.2 0-2.2-1-2.2-2.2 0-1.2 1-2.2 2.2-2.2 1.2 0 2.2 1 2.2 2.2 0 1.2-.9 2.2-2.2 2.2zm-5.4 0c-1.2 0-2.2-1-2.2-2.2 0-1.2 1-2.2 2.2-2.2 1.2 0 2.2 1 2.2 2.2 0 1.2-1 2.2-2.2 2.2zm-5.4 0c-1.2 0-2.2-1-2.2-2.2 0-1.2 1-2.2 2.2-2.2 1.2 0 2.2 1 2.2 2.2-.1 1.2-1 2.2-2.2 2.2zm-9.2 24.2c-4 0-7.3-3.3-7.3-7.4s3.3-7.4 7.3-7.4 7.3 3.3 7.3 7.4-3.3 7.4-7.3 7.4zm0-11.6c-2.3 0-4.2 1.9-4.2 4.2 0 2.3 1.9 4.2 4.2 4.2s4.2-1.9 4.2-4.2c-.1-2.3-1.9-4.2-4.2-4.2zm-.1 6.4c-1.2 0-2.2-1-2.2-2.2 0-1.2 1-2.2 2.2-2.2 1.2 0 2.2 1 2.2 2.2-.1 1.2-1 2.2-2.2 2.2z"/>
</symbol><symbol id="icon-features-2" viewBox="0 0 90.4 99.5">
    <path d="M88.3 66.5H74.1c-1.2 0-1.7.6-1.7 1.8v4.2h-2.5L61 64.3c-.4-.3-.9-.8-1.4-.8H34.8c-1.1 0-2 1-2.1 2.1l-.1 1v.3c-.1 1.9.5 3.7 1.6 5.7h-.4L27.7 63c-2.1-4-6.7-7.3-11.4-5.8l-2.3.7c-.2.1-.3.1-.4.2-.5.2-.9.7-1.1 1.2-.1.4-.1.8 0 1.2-3.4-1.3-7.3-1.2-10 1.5L.9 63.6l-.3.3c-.4.5-.6 1-.5 1.6.1.6.4 1.1.9 1.5l22.3 15.3c.1.1.3.2.5.2l34.8 12.8c.2.1.5 0 .7 0h13.2v2.1c0 1.2.6 1.9 1.7 1.9h9.3c1.2 0 2.1-.8 2.1-2s-.9-2-2.1-2h-7v-25h11.9c1.2 0 2.1-.8 2.1-2-.1-1-1.1-1.8-2.2-1.8zm-70.8-5.3c2.5-.8 5.2 1.3 6.5 3.8 0 .1.1.1.1.2l2.1 3.2-7-4c0-.1 0-.1-.1-.2l-1.6-3zm54.8 30.3H59.5L25.3 78.8 5.3 65c1.9-1.9 5.2-1.2 7.5.4.1 0 18.6 10.8 18.6 10.8.3.2.7.3 1.1.3h22.3c1.2 0 2.1-.8 2.1-2s-.9-2-2.1-2H40.7c-.9 0-1.8-.6-2.6-1.5-.6-.8-1-2.5-1.2-2.5h21.8l8.9 7.7c.4.3.9.3 1.4.3h3.3v15z"/>
    <path d="M32.1 49.3c3.3 0 6.5-.9 9.4-2.5.1 0 .2.1.3.1v4.3c0 1 .8 1.8 1.8 1.8s1.8-.8 1.8-1.8V47c.4-.1.8-.2 1-.4 3 1.9 6.4 2.9 9.9 2.9 10.3 0 18.6-8.4 18.6-18.6 0-8.2-5.3-15.4-13.1-17.8C59.5 5.3 52.4 0 44.1 0 36 0 28.9 5.2 26.4 12.9c-7.8 2.5-12.9 9.6-12.9 17.7 0 10.3 8.3 18.7 18.6 18.7zm27.8-18.7c-4.7 1.1-8.5 2.9-11.4 5.2.2-7.3-4.5-13.2-4.7-13.5l-.5-.6-.3.7c-2.2 4.4-3.3 8.6-3.3 12.3-2.5-2-5.6-3.6-9.3-4.9l-.7-.3.1.8c0 .4 1 9.3 7.7 14.2-1.7.7-3.5 1-5.3 1-8.2 0-14.9-6.7-14.9-14.9 0-6.8 4.6-12.7 11.2-14.4l1.1-.3.3-1.1c1.7-6.6 7.6-11.2 14.4-11.2C51 3.7 57 8.4 58.6 15l.3 1.1 1.1.3C66.6 18 71.3 24 71.3 30.9c0 4-1.6 7.7-4.4 10.6-2.8 2.8-6.6 4.4-10.6 4.4-1.8 0-3.6-.3-5.3-1 7.5-4.2 9.3-13.2 9.4-13.6l.2-.8-.7.1z"/>
</symbol><symbol id="icon-features-3" viewBox="0 0 92 57">
    <style>
        .st0{fill:#9ca1aa}
    </style>
    <path transform="matrix(1 -.00388 .00388 1 -.182 .056)" class="st0" d="M13 42.8h2.9v8.5H13z"/>
    <path class="st0" d="M47.4 42.6c-2.4 0-4.3 1.9-4.3 4.3s1.9 4.3 4.3 4.2c2.4 0 4.3-1.9 4.3-4.3 0-2.3-1.9-4.2-4.3-4.2zm0 5.7c-.8 0-1.4-.6-1.4-1.4 0-.8.6-1.4 1.4-1.4.8 0 1.4.6 1.4 1.4.1.8-.6 1.4-1.4 1.4z"/>
    <path class="st0" d="M89.1 36.7H68.9l17.3-17.1c1.1-1.1 1.1-2.9 0-4L76 5.5c-1.1-1.1-3-1.1-4.1 0L57.4 19.9l-.1-17.1C57.3 1.3 56 0 54.4 0L40.1.1c-1.6 0-2.9 1.3-2.9 2.9l.1 20L19.9 6c-1.1-1.1-2.9-1.1-4.1 0L5.7 16c-1.1 1.1-1.1 2.9 0 4l17.4 17-20.2.1C1.3 37.1 0 38.4 0 40l.1 14.2C.1 55.8 1.4 57 3 57l51.7-.2c.4 0 .8-.1 1.2-.3h33.3c1.6 0 2.9-1.3 2.9-2.8V39.5c-.1-1.6-1.4-2.8-3-2.8zm-34.5.2h-3l-5.8-5.7h8.8v5.7zm0-8.5H43l-2.7-2.7V17h14.2l.1 11.4zm-.1-25.6v11.4l-14.4.1V2.9l14.4-.1zM38.3 27.9l9.2 9-18.3.1 9.1-9.1zM7.8 18L17.9 7.9l8.2 8L15.9 26l-8.1-8zM18 28l10.1-10.1 8.2 8L26.1 36 18 28zM2.9 54.2V40l51.7-.2V54l-51.7.2zM74 7.5l10.2 10-8.1 8-10.2-10 8.1-8zM57.4 23.9l6.4-6.3 10.2 10-8.1 8-8.4-8.3-.1-3.4zm0 7.4l6.4 6.3-6.3 6.3-.1-12.6zm3 22.4h-2.9v-5.8l2.9-2.9v8.7zm14.4 0H63.3V42.2l2.7-2.7h8.8v14.2zm14.3 0H77.6V39.5h11.5v14.2z"/>
    <path transform="matrix(1 -.00387 .00387 1 -.182 .078)" class="st0" d="M18.7 42.7h2.9v8.5h-2.9z"/>
    <path transform="matrix(1 -.0039 .0039 1 -.183 .101)" class="st0" d="M24.5 45.5h2.9v2.8h-2.9z"/>
</symbol><symbol id="icon-features-4" viewBox="0 0 46 58">
    <style>
        .st0{fill:#9ca1aa}
    </style>
    <path class="st0" d="M29.6 33.4h5.2v-2.1c-.9-.1-1.8-.1-2.7-.2V16.6h2.7v-2.1h-5.3c.1 6.4.1 12.7.1 18.9z"/>
    <path class="st0" d="M16.3 16.6c.4-.2.4-1.3.7-2h-5.6v18.8h5.3v-2.2H14v-5.9c1 0 1.9-.1 2.8-.1V23H14v-6.3c.8 0 1.7.3 2.3-.1z"/>
    <path class="st0" d="M43.1 0H2.9C1.3 0 0 1.3 0 2.9V55c0 1.6 1.3 3 2.9 3H43c1.6 0 2.9-1.3 2.9-3V2.9C46 1.3 44.7 0 43.1 0zm.1 55c0 .1-.1.2-.2.2H2.9c-.1 0-.2-.1-.2-.2V2.9c0-.1.1-.2.2-.2H43c.1 0 .2.1.2.2V55z"/>
    <path class="st0" d="M19 33.4h2.5v-8.1h2.7v8h2.5V14.5H19v18.9zm2.6-16.6h2.6V23h-2.6v-6.2z"/>
</symbol><symbol id="icon-features-5" viewBox="0 0 71 47">
    <style>
        .st0{fill:#9ca1aa}
    </style>
    <path class="st0" d="M66.5 6.8H37.7C36.2 2.4 27.4 0 19 0 9.8 0 0 2.9 0 8.2c0 .3 0 .5.1.7H0v29.9C0 44.1 9.8 47 19 47c8.6 0 17.7-2.5 18.9-7.2h28.6c2.5 0 4.5-2 4.5-4.5v-24c0-2.5-2-4.5-4.5-4.5zm-31.3 32c0 2.2-6.1 5.4-16.2 5.4C9 44.1 2.8 41 2.8 38.8V12.6c1.4 1 3.3 1.8 5.5 2.4v6.6c0 .7.7 1.4 1.5 1.4s1.4-.6 1.4-1.4v-5.9c2.1.4 4.3.6 6.5.7 0 .1-.1.2-.1.3v12.7c0 .8.6 1.4 1.4 1.4.8 0 1.4-.6 1.4-1.4V16.6c0-.1 0-.2-.1-.3 2.2-.1 4.5-.3 6.6-.7v5.9c0 .8.6 1.4 1.4 1.4.8 0 1.4-.6 1.4-1.4V15c2.1-.6 3.9-1.4 5.3-2.3v26.1zM19 13.5c-10 0-16.2-3.1-16.2-5.4C2.8 6 9 2.8 19 2.8s16.2 3.1 16.2 5.4c0 2.2-6.2 5.3-16.2 5.3zm49.1 21.8c0 .9-.8 1.7-1.7 1.7H38V9.6h4.3V15c0 .8.6 1.4 1.4 1.4.8 0 1.4-.6 1.4-1.4V9.6h6.5c0 .1-.1.3-.1.4v12.7c0 .8.6 1.4 1.4 1.4.8 0 1.4-.6 1.4-1.4V10.1c0-.2 0-.3-.1-.4h6.6V15c0 .8.6 1.4 1.4 1.4.8 0 1.4-.6 1.4-1.4V9.6h2.7c.9 0 1.7.8 1.7 1.7v24z"/>
</symbol><symbol id="icon-features-6" viewBox="0 0 71.2 71.2">
    <style>
        .st0{fill:#42746e}
    </style>
    <path class="st0" d="M35.6 0C16 0 0 16 0 35.6s16 35.6 35.6 35.6 35.6-16 35.6-35.6S55.2 0 35.6 0zm0 68.2C17.6 68.2 3 53.5 3 35.6S17.6 3 35.6 3s32.6 14.6 32.6 32.6-14.7 32.6-32.6 32.6z"/>
    <path class="st0" d="M20.3 24.6v13.3h3.3V21.1h-2.9l-4.4 1.5.8 2.9z"/>
    <path class="st0" d="M31.5 24c.6 0 1.2.2 1.6.6.4.4.6.9.6 1.6 0 .9-.6 2-1.9 3.4L26 35.4v2.5h11.3v-3.2H31l3.3-3.3c1.8-1.8 2.8-3.6 2.8-5.4 0-1.6-.5-2.9-1.6-3.9s-2.4-1.4-3.9-1.4c-1.2 0-2.3.3-3.3.9-1 .6-1.8 1.5-2.3 2.6l2.8 1.6c.5-1.2 1.4-1.8 2.7-1.8z"/>
    <path class="st0" d="M50.5 35.8c1.2-1.6 1.8-3.7 1.8-6.3s-.6-4.8-1.8-6.3c-1.2-1.6-2.8-2.4-5-2.4-2.1 0-3.8.8-5 2.4-1.2 1.6-1.8 3.7-1.8 6.3s.6 4.8 1.8 6.3c1.2 1.6 2.8 2.4 5 2.4 2.1 0 3.8-.8 5-2.4zM43 33.6c-.6-.9-.9-2.3-.9-4.1s.3-3.2.9-4.1c.6-.9 1.4-1.4 2.6-1.4 1.1 0 2 .5 2.6 1.4.6.9.9 2.3.9 4.1 0 1.8-.3 3.1-.9 4.1-.6.9-1.4 1.4-2.6 1.4-1.2 0-2.1-.5-2.6-1.4z"/>
    <path class="st0" d="M14.5 47h1.9v4.5H18V47h1.9v-1.5h-5.4z"/>
    <path class="st0" d="M41.2 52.7h.6l4.9-10.8H46z"/>
    <path class="st0" d="M50.9 48l-1.6-2.5h-1.5v6h1.5v-3.6l1.5 2.5h.2l1.5-2.4v3.5h1.6v-6h-1.6z"/>
    <path class="st0" d="M38.5 47.7h-2.4v-2.2h-1.6v6h1.6v-2.3h2.4v2.3h1.6v-6h-1.6z"/>
    <path class="st0" d="M31.6 47.7h-2.4v-2.2h-1.6v6h1.6v-2.3h2.4v2.3h1.5v-6h-1.5z"/>
    <path class="st0" d="M23.3 45.3c-.9 0-1.6.3-2.3.9-.6.6-.9 1.4-.9 2.3s.3 1.6.9 2.3c.6.6 1.4.9 2.3.9.9 0 1.6-.3 2.3-.9s.9-1.4.9-2.3-.3-1.6-.9-2.3-1.4-.9-2.3-.9zm1.2 4.4c-.3.3-.7.5-1.2.5s-.9-.2-1.2-.5c-.3-.3-.5-.7-.5-1.2s.2-.9.5-1.2c.3-.3.7-.5 1.2-.5s.9.2 1.2.5c.3.3.5.7.5 1.2s-.2.9-.5 1.2z"/>
</symbol><symbol id="icon-guard" viewBox="0 0 79.2 97">
    <path d="M78.7 17.8C65.8 12.1 52.7 6.3 39.8.5h-.1C26.5 6.3 13.5 12.1.5 17.9v26.4c.1 11.8 4 23.4 11 32.8 7.1 9.5 16 16 26.7 19.2.9.3 1.8.3 2.6 0 10.3-3.1 19.2-9.2 25.6-17.8 7.9-9.9 12.1-22.2 12.1-34.8V32.2c.1-5.2.1-9.9.2-14.4zm-3.1 5.3v21.4c.1 11.2-3.8 22.3-10.8 31.1-5.8 7.7-13.8 13.2-23.1 16-.7.2-1.4.3-2.2.3-.7 0-1.5-.1-2.2-.3-9.6-2.9-18.1-9-24-17.2C7.1 66 3.6 55.6 3.6 45c-.1-4.9 0-9.9 0-14.8v-7.3c-.1-1.4.7-2.7 2.1-3.1C16.4 15 27.2 10.2 38 5.4c1-.5 2.2-.5 3.3 0C52 10.2 62.9 15 73.6 19.7c1.3.5 2.1 1.9 2 3.4z"/>
    <path d="M60.1 28.2H19.4c-1.1 0-1.9.7-1.9 1.8v33.3c0 1.1.7 1.8 1.8 1.8H60c1.1 0 1.9-.7 1.9-1.8V30c.1-1.1-.7-1.8-1.8-1.8zm-38.8 3.7h37v3.7h-37v-3.7zm37 29.6h-37V39.3h37v22.2z"/>
    <path d="M34.2 46.7h11.1c1.1 0 1.8-.7 1.8-1.8s-.7-1.9-1.8-1.9H34.2c-1.1 0-1.8.7-1.8 1.8s.7 1.9 1.8 1.9z"/>
</symbol><symbol id="icon-history-icon" viewBox="0 0 90 90">
    <path d="M18.6 52.2h-3.9c-1.1 0-2 .9-2 2v1c0 1.1.9 2 2 2h3.9c1.1 0 2-.9 2-2v-1c0-1.1-.9-2-2-2z"/>
    <path d="M18.6 63.6h-3.9c-1.1 0-2 .9-2 2v1c0 1.1.9 2 2 2h3.9c1.1 0 2-.9 2-2v-1c0-1.1-.9-2-2-2z"/>
    <path d="M34.2 40.9h-3.9c-1.1 0-2 .9-2 2v1c0 1.1.9 2 2 2h3.9c1.1 0 2-.9 2-2v-1c0-1.1-.9-2-2-2z"/>
    <path d="M34.2 52.2h-3.9c-1.1 0-2 .9-2 2v1c0 1.1.9 2 2 2h3.9c1.1 0 2-.9 2-2v-1c0-1.1-.9-2-2-2z"/>
    <path d="M34.2 63.6h-3.9c-1.1 0-2 .9-2 2v1c0 1.1.9 2 2 2h3.9c1.1 0 2-.9 2-2v-1c0-1.1-.9-2-2-2z"/>
    <path d="M85.5 52.1c-1.5-2.1-3.4-4-5.5-5.5V16.4c0-4.7-3.8-8.5-8.5-8.5h-6.8V2.5c0-1.4-1.1-2.5-2.5-2.5s-2.5 1.1-2.5 2.5v5.4L20.3 8V2.5c0-1.4-1.1-2.5-2.5-2.5s-2.5 1.1-2.5 2.5V8H8.5C3.8 8 0 11.8 0 16.5v55C0 76.2 3.8 80 8.5 80h38.1c7.7 10.8 22.7 13.2 33.4 5.5 10.8-7.7 13.2-22.6 5.5-33.4zM5 16.5C5 14.6 6.6 13 8.5 13h6.8v5.4c0 1.4 1.1 2.5 2.5 2.5s2.5-1.1 2.5-2.5V13l39.5-.1v5.4c0 1.4 1.1 2.5 2.5 2.5s2.5-1.1 2.5-2.5v-5.5h6.8c1.9 0 3.5 1.5 3.5 3.5v13.1H5V16.5zm75.9 61.4C77.3 82.4 71.8 85 66 85c-9.6 0-17.7-7.2-18.8-16.7-.2-1.4-1.4-2.4-2.8-2.2-1.4.2-2.4 1.4-2.2 2.8.3 2.1.8 4.1 1.6 6.1H8.5C6.6 75 5 73.4 5 71.5v-37h70v9.3c-8.8-3.6-19-1.6-25.8 5.1V43c0-1.4-1.1-2.5-2.5-2.5s-2.5 1.1-2.5 2.5V57.1c0 .1.1.3.1.4.3 1 1.3 1.7 2.4 1.7h13.7c1.4 0 2.5-1.1 2.5-2.5s-1.1-2.5-2.5-2.5h-9.2c6.6-8.2 18.5-9.5 26.7-2.9 8.3 6.4 9.6 18.4 3 26.6z"/>
</symbol><symbol id="icon-inst" viewBox="0 0 15 15">
    <style>
        .st0{fill:#939ba2}
    </style>
    <path class="st0" d="M10.8 0H4.1C1.9 0 0 1.9 0 4.1v6.7C0 13.1 1.9 15 4.1 15h6.7c2.3 0 4.1-1.9 4.1-4.1V4.1C15 1.9 13.1 0 10.8 0zm2.9 10.9c0 1.5-1.3 2.8-2.8 2.8H4.1c-1.5 0-2.8-1.3-2.8-2.8V4.1c0-1.5 1.3-2.8 2.8-2.8h6.7c1.5 0 2.8 1.3 2.8 2.8v6.8z"/>
    <path class="st0" d="M7.5 3.6c-2.1 0-3.9 1.7-3.9 3.9 0 2.1 1.7 3.9 3.9 3.9 2.1 0 3.9-1.7 3.9-3.9 0-2.1-1.8-3.9-3.9-3.9zm0 6.4C6.1 10 5 8.9 5 7.5S6.1 5 7.5 5 10 6.1 10 7.5 8.9 10 7.5 10z"/>
    <path class="st0" d="M11.5 2.5c-.3 0-.5.1-.7.3-.2.2-.3.4-.3.7 0 .3.1.5.3.7.2.2.4.3.7.3s.5-.1.7-.3c.2-.2.3-.4.3-.7 0-.3-.1-.5-.3-.7-.2-.2-.4-.3-.7-.3z"/>
</symbol><symbol id="icon-knitwear" viewBox="0 0 51 44">
    <path d="M50.644 17.819c-2.631 2.664-7.229 7.203-8.474 7.666a1.22 1.22 0 0 1-.381.069c-.017 0-.033.009-.05.009-.024 0-.045-.012-.069-.013a1.245 1.245 0 0 1-.331-.065c-.027-.009-.055-.012-.082-.024a1.207 1.207 0 0 1-.294-.171v17.483a1.228 1.228 0 0 1-1.231 1.222H11.271a1.229 1.229 0 0 1-1.232-1.222V25.289a1.218 1.218 0 0 1-.293.172c-.028.012-.058.015-.087.025a1.209 1.209 0 0 1-.321.062c-.026.002-.049.015-.074.015-.019 0-.036-.009-.055-.01a1.259 1.259 0 0 1-.377-.068l-.001-.001c-1.295-.48-6.357-5.521-8.473-7.665a1.21 1.21 0 0 1-.25-1.34C.974 14.496 7.226 7.107 8.47 5.645 11.871 1.651 19.11.085 19.417.02c.009-.002.017.001.025 0a1.21 1.21 0 0 1 .445-.001l.069.017c.149.035.293.089.423.179 1.087.757 3.002 1.21 5.123 1.21 2.12 0 4.034-.453 5.122-1.21.13-.09.275-.144.423-.18.023-.005.045-.012.068-.016.148-.027.298-.028.448.001.007.001.014-.002.02 0 .772.162 7.612 1.703 10.949 5.625 1.748 2.053 7.518 8.901 8.362 10.834.2.458.101.984-.25 1.34zM8.894 8.951l-.048.058c-.338.404-.679.814-1.019 1.226l-.018.022c-.326.394-.65.79-.969 1.182l-.078.096c-.288.353-.567.7-.843 1.044l-.168.209c-.239.3-.466.589-.691.875l-.242.307c-.196.253-.375.488-.556.724l-.269.351c-.169.225-.316.427-.465.632-.073.101-.158.213-.226.308-.206.287-.387.549-.536.778 2.658 2.666 5.164 5.033 6.357 6.008l.915-.887V9.83c-.006-.329-.099-1.167-.43-1.727-.236.28-.473.56-.714.848zm20.544-5.589l-.115.032a12.43 12.43 0 0 1-1.018.225c-.067.012-.132.027-.2.038-.33.055-.669.096-1.016.129-.09.008-.177.022-.268.029-.431.033-.87.053-1.32.054-.451 0-.891-.021-1.323-.054-.084-.007-.164-.019-.247-.027a15.21 15.21 0 0 1-1.04-.132c-.061-.01-.119-.023-.179-.034-.358-.064-.705-.14-1.04-.229l-.098-.028c-.204-.057-.413-.108-.607-.174.121.599.364 1.274.845 1.827.757.869 1.997 1.309 3.689 1.309s2.933-.44 3.689-1.309c.481-.552.724-1.228.845-1.827-.191.065-.397.115-.597.171zm3.136-.554c-.1 1.12-.451 2.572-1.509 3.794-1.245 1.439-3.117 2.168-5.564 2.168s-4.32-.729-5.563-2.168c-1.052-1.216-1.402-2.671-1.503-3.796-1.794.527-4.959 1.664-7.109 3.492 1.158 1.367 1.176 3.418 1.176 3.532v31.721h25.999V22.4 9.83c0-.114.019-2.166 1.176-3.532-2.147-1.826-5.308-2.962-7.103-3.49zm15.422 13.605c-.095-.138-.179-.265-.29-.42-.094-.132-.21-.286-.314-.428-.125-.17-.241-.331-.379-.514l-.287-.375a75.02 75.02 0 0 0-.545-.71l-.195-.247a101.317 101.317 0 0 0-.805-1.019 238.534 238.534 0 0 0-3.785-4.596c-.33.562-.425 1.399-.432 1.732v12.048l.85.824.066.063c1.191-.975 3.698-3.342 6.356-6.008-.068-.103-.161-.234-.24-.35z"/>
</symbol><symbol id="icon-letter-i" viewBox="0 0 14 33">
    <path d="M5.337 25.816c0 2.976-.288 4.032-1.393 4.032-.816 0-1.536-.288-2.208-.288-.96 0-1.632.672-1.632 1.584 0 .913.816 1.777 1.632 1.777 1.68 0 3.073-.528 5.089-.528 2.064 0 3.312.528 4.944.528 1.008 0 2.064-.672 2.064-1.777 0-.912-.672-1.584-1.632-1.584-.72-.048-1.392.288-1.92.288-.864 0-1.248-.816-1.248-1.968V10.023c0-.96-.24-2.065-1.344-2.065-.912 0-1.536.528-2.736.528-1.153 0-1.873-.528-3.169-.528-.912 0-1.68.673-1.68 1.777 0 .912.672 1.584 1.632 1.584.672 0 1.392-.288 2.208-.288 1.057 0 1.393.672 1.393 4.032v10.753zM6.345-.01a2.736 2.736 0 0 0-2.737 2.736c0 1.536 1.249 2.784 2.737 2.784a2.786 2.786 0 0 0 2.784-2.784C9.129 1.19 7.881-.01 6.345-.01z"/>
</symbol><symbol id="icon-list-sale" viewBox="0 0 24 22">
    <path d="M21.777 18.117c-.483.099-1.182.142-2.093.142h-1.311v.848h5.199v1.668h-5.199v1.217h-2.021v-1.217h-1.154v-1.668h1.154v-.848h-1.154V16.59h1.154v-4.511h3.233c1.224 0 2.021.057 2.406.155 1.139.297 2.008 1.315 2.008 2.9 0 1.81-1.168 2.757-2.222 2.983zm-.982-4.284c-.242-.044-.727-.071-1.453-.071h-.969v2.813h1.098c.796 0 1.324-.056 1.594-.155.513-.183.855-.679.855-1.259 0-.721-.485-1.216-1.125-1.328zM4.798 4.812h8.17v2.209h-8.17V4.812zm8.17 6.626h-8.17V9.23h8.17v2.208zm2.573-9.231H2.225V17.22h10.761v2.209H1.113a1.108 1.108 0 0 1-1.112-1.105V1.103c0-.61.497-1.105 1.112-1.105h15.54c.614 0 1.112.495 1.112 1.105v8.812h-2.224V2.207z"/>
</symbol><symbol id="icon-logo" viewBox="0 0 905 417">
    <path class="st0" d="M559 199c-8 3-4 3-9 4l-1 14 6-1 8-2c6-2 21-1 28-1l3-11c0-1 2-2 0-3l-32-1c-4 0 0 0-3 1z"/>
    <path class="st0" d="M291 241l4-3 2-5c14-31 23-22 16-15l-11 8 3 9c2 3 7 6 10 6h17c6 0 20-3 26-5 9-5 10-11 7-21v-11l-6 6c-3 5 0 11 2 15l-3 2c-4 2-9 3-14 3h-33c0-4 2-4 5-6 4-4 12-10 11-18 0-4-5-5-8-4l-9 6-13 11 7-47c1-10-1-7 20-7h133c0 6-8 7-8 15v61c0 6 6 0 8-1l11-14c3-1 3 4 3 7l1 9c9-3 12-15 19-19 3-2 2 2 2 5s1 4 3 7c8 10 33 9 41 0 3-2 7-7 6-11 0-4-1-1-2 0-8 6-19 6-29 6-11 0-13-4-12-14 1-3 2-7 1-10-1-2 0 0-2-1l-5-2c-3 4-11 15-15 15 0-6 0-13-3-18-3 1-8 6-10 9l-2 3-2 4h-1s0 1 0 0v1l-4 4c-3-6 4-44 4-56h139c0 27 0 16 7 19l1 5v60l6-4c6-5 9-50 9-62h8v59l8 1c4-8 4-21 6-30l1-9 3-24h5l1 5 2 19c1 6 4 33 6 36 4 6 16 7 21 3s5-9 5-15l-2-6h-2c-2 12-23 8-17-19l4-22c14 0 13-19 13-29 0-5-1-2-1-2-11 4-21 11-35 11-7 0-47 5-48-2H306l1-11c-2-1-6-4-10-4-7 31-6 63-6 94v3z"/>
    <path class="st0" d="M518 209c-1 2-2 3-1 4l1 1 1 1c8 2 5-11-1-6zm312 30v1c5 9 33 4 39-1v-1l1-2c2-3 4-5 4-9l-8 5c-11 4-37 6-30-13 3-10 12-11 12-1 3 0 6 0 8-4 1-3 0-5-1-7-5-6-10-6-17-1l-2 1c-6 5-7 15-7 23v6l1 3zm-26-29v-4c-6 0-7 2-6 7 3 0 6 1 6-3z"/>
    <path class="st0" d="M749 241c3-1 3-1 6-8 5-12 6-17 18-24 1 8-4 12-11 16l-3 1c1 6 3 10 8 13 10 5 23 2 32 1s25-5 25-15c0-6-3-8-3-12-1-2 1-5 1-8-4 0-6 5-6 8-1 5 2 7 2 12s-49 10-49 1l7-5c14-11 10-26-6-16-4 4-11 13-15 13l7-52 3-18c-3-1-6-4-10-4-9 38-7 54-7 94l1 3zm-45 3c7 1 20 0 28-3 4-1 7-4 9-7s1-4 1-8c-3 1-1 2-5 4h-1l-2 1-3 1c-12 3-22 3-14-11l3-5c4-11 0-20-10-12v1l-2 1c-7 6-8 10-11 18-1 9-2 18 7 20zm7-30c3 4 0 13-6 13 0-5 1-12 6-13z"/>
    <path class="st0" d="M904 225c-6 6-2 28-21 28H178c1-10 3-25 11-32 4-4 9-8 12-2 4 6 3 16-7 13l-8-2-2 4 2 3c3 3 6 6 9 6 11 0 15-16 15-21l-2-9c-2-5-7-7-11-7-6 1-11 7-14 7-3-2-6-8-12-10v50H0v7h170c0 8-3 18-7 24l-1 2-7 6c-6 3-14 3-21 0-4-2-8-5-9-10-5 4-4 25 19 25 25 0 29-28 33-46l668-1h47c5-1 11-6 12-13v-22z"/>
    <path class="st0" d="M49 243c3 0 16 7 28-3l8-9c5-11 7-34-2-42l-2-2c-8-4-16 2-23 6l-6 3c0-7-2-10 0-19 1-8 0-12 7-14l17-5 10-1c8-1 10 0 12 7l2-3v-1l3-7 2-13c0-9-8-9-14-6l-17 5-6 1-24 7c-2 1-5 1-5 4 0 13-1 47 2 59 2 8 8 26 8 33zm30-32c4 19-21 16-26 9v-1c-9-20 21-29 26-8zm327-1c-1 3-1 3-6 3l-1-3c-6-6-17 4-21 8-5 6-8 16-5 23s16 1 20-3l5-4 2 4 1 2c6 9 26 5 34-1 4-4 5-8 5-14l-2 1-2 2-2 1c-4 2-11 3-16 3-10 0-9-12-9-22h-3zm-24 23c-2-2-1-7 5-12 3-3 7-5 11-5 0 13-13 19-16 17zm-289-4c-3 12 5 18 15 13l4-2 5-5c6 8 9 14 30 8l4-2h1c6-3 9-10 9-16l-5 2-5 3c-4 1-15 4-19-1-2-4-3-15-3-20l-4 3-3 2c-2-5-2-9-13-4-6 4-14 12-16 19zm12-4c4-5 7-8 14-9 0 3 0 4-2 7-3 5-9 9-11 9-7 3-3-5-1-7zm131 14l6-6c0 15 18 13 27 10l3-1c8-4 12-8 12-17l-10 5h-1l-12 2-3-1h-1c-7-4-4-18-4-21l-9 4c-3-8-4-7-12-4-6 4-17 14-17 22 0 4 0 6 2 9 1 2 10 5 19-2zm-7-16v-1c6-7 18-8 11 1-6 4-25 18-11 0zm110-10h7v-7h-5c-1 3-2 1-2 7zm123-85l-58-58 47-48 49 48-36 36-36-36 24-23 23 22-17 17 7 7 24-23-36-37-38 38 53 52 54-54-70-69-69 70 69 69zm43 13l21-21 21 21h14l-34-35-35 35z"/>
    <path class="st0" d="M481 141l44-45 46 45h23l-68-68-66 68zm-124 0l21-21 21 21h13l-34-35-34 35z"/>
    <path class="st0" d="M377 96l46 45h22l-68-68-66 68h21zm184 180h-14l-21 21-21-21h-13l35 35z"/>
    <path class="st0" d="M525 322l-44-46h-21l66 68 68-68h-23zm-102-46l-46 46-45-46h-21l66 68 68-68zm-8 70l38 38 36-36-24-24-7 7 17 17-23 22-24-23 36-36 36 36-49 48-47-48 58-58-10-11-69 69 69 70 70-69-54-54z"/>
    <path class="st0" d="M412 276h-13l-21 21-21-21h-13l34 35z"/>
</symbol><symbol id="icon-mail" viewBox="0 0 30.5 21">
    <style>
        .st0{fill:#221e1f}
    </style>
    <path class="st0" d="M30.5 1.1V.9c0-.1-.1-.2-.1-.2V.6l-.1-.1-.2-.2c-.1-.1-.1-.1-.2-.1s-.1-.1-.2-.1-.2 0-.2-.1H1.4C.6 0 0 .6 0 1.3v18.5c0 .6.6 1.2 1.3 1.2h28c.7 0 1.3-.6 1.3-1.3V1.3c-.1-.1-.1-.1-.1-.2zm-5.4 1.4l-9.8 6.4-10-6.4h19.8zm-22.6 16V3.7l12.1 7.8c.2.1.4.2.7.2.2 0 .5-.1.7-.2l12-7.9v14.9H2.5z"/>
</symbol><symbol id="icon-map-2" viewBox="0 0 23 33">
    <path d="M22.672 14.171c-.051.208-.106.414-.167.618a10.984 10.984 0 0 1-.533 1.429c-.137.296-.225.471-.316.645L11.5 32.998 1.346 16.863c-.095-.18-.186-.362-.271-.547l-.316-.753a11.453 11.453 0 0 1-.744-4.078C.015 5.144 5.167-.014 11.5-.014c6.334 0 11.487 5.158 11.487 11.499 0 .908-.106 1.812-.315 2.686zM11.5 3.467c-4.415 0-8.008 3.596-8.008 8.018 0 .981.174 1.937.518 2.842l.131.315L11.5 26.431l7.369-11.801a7.634 7.634 0 0 0 .421-1.269c.146-.61.22-1.241.22-1.876 0-4.422-3.593-8.018-8.01-8.018zm.001 10.37a2.45 2.45 0 0 1-2.448-2.45 2.45 2.45 0 0 1 2.448-2.451 2.45 2.45 0 0 1 2.448 2.451 2.45 2.45 0 0 1-2.448 2.45z"/>
</symbol><symbol id="icon-map" viewBox="0 0 15 19">
    <path d="M13.501 11.325l-5.995 7.673-5.995-7.695A6.706 6.706 0 0 1 .006 7.082c0-3.914 3.374-7.08 7.5-7.08 4.126 0 7.5 3.166 7.5 7.08a6.698 6.698 0 0 1-1.505 4.243zM7.506 1.761c-3.123 0-5.676 2.375-5.676 5.321 0 1.145.393 2.258 1.117 3.166l4.559 5.826 4.559-5.826a5.07 5.07 0 0 0 1.118-3.166c0-2.946-2.554-5.321-5.677-5.321zm0 9.08c-2.147-.012-3.886-1.688-3.898-3.759 0-2.076 1.745-3.76 3.898-3.76s3.898 1.684 3.898 3.76c0 2.076-1.745 3.759-3.898 3.759zm0-5.76c-1.145 0-2.074.896-2.074 2.001 0 1.104.929 2.001 2.074 2.001 1.146 0 2.075-.897 2.075-2.001 0-1.105-.929-2.001-2.075-2.001z"/>
</symbol><symbol id="icon-new-products" viewBox="0 0 32 43">
    <path d="M30.699 42.907H2.191a1.25 1.25 0 0 1-1.239-1.26V2.18c0-.696.555-1.259 1.239-1.259h13.891c.333.001.635.135.858.353l14.619 14.284c.276.269.409.649.374 1.023.004.039.006.079.006.119v24.947a1.25 1.25 0 0 1-1.24 1.26zM17.318 5.14v10.065h10.303L17.318 5.14zm12.141 12.583H16.078a1.25 1.25 0 0 1-1.24-1.259V3.439H3.431v36.949h26.028V17.723zM11.724 27.911h3.394v-3.445c0-.696.554-1.259 1.24-1.259.684 0 1.239.563 1.239 1.259v3.445h3.393c.685 0 1.24.564 1.24 1.26a1.25 1.25 0 0 1-1.24 1.259h-3.393v3.445a1.25 1.25 0 0 1-1.239 1.259 1.25 1.25 0 0 1-1.24-1.259V30.43h-3.394a1.25 1.25 0 0 1-1.239-1.259c0-.696.555-1.26 1.239-1.26z"/>
</symbol><symbol id="icon-package-dop" viewBox="0 0 654.1 654.1">
    <path d="M637.5 0c-2.9 0-5.6.7-8.1 2.1l-.1-.1-123.4 89.2-25.2 93.9-365-97.8-97.9 365.3c-7.8-.5-15.2 4.5-17.3 12.3-2.4 8.9 2.9 18 11.8 20.4l298 79.9c-2.3 39.7 23.5 75.7 62.3 86.1 7.2 1.9 14.5 2.9 21.8 2.9 38 0 71.4-25.7 81.2-62.4 10.4-38.8-7.8-79.1-43.4-96.9L535 111.3l112.2-81.1 1.3-1v-.1c3.5-3.1 5.6-7.7 5.6-12.4 0-9.2-7.5-16.7-16.6-16.7zm-411 248l25.2 22.4 29.6-6 22.6 20 33-6.8 24.1-90.1 111.1 29.8-72 268.7c-1.9-.1-3.8-.2-5.8-.2-32.1 0-61.5 18.4-75.5 47.1l-268.7-72 89.2-332.8 111.3 29.8-24.1 90.1zm84.3-1.9l-19.9-17.7-26.1 5.3 18-67.1 46 12.3-18 67.2zm34.5 310.7c6-22.2 26.1-37.7 49-37.7 4.5 0 8.9.6 13.2 1.8 13.1 3.5 24.1 11.9 30.9 23.7 6.8 11.8 8.6 25.5 5.1 38.6-5.9 22.2-26.1 37.7-49 37.7-4.5 0-8.9-.6-13.2-1.8-27.1-7.3-43.2-35.2-36-62.3z"/>
    <path d="M390.4 586.6c1.4.4 2.9.6 4.3.6 2.9 0 5.7-.8 8.3-2.2 3.8-2.2 6.6-5.8 7.8-10.1 1.2-4.3.6-8.8-1.7-12.7-2.2-3.9-5.8-6.6-10.1-7.8-8.9-2.4-18 2.9-20.4 11.8-2.4 8.9 2.9 18 11.8 20.4z"/>
</symbol><symbol id="icon-password" viewBox="0 0 26 29">
    <path d="M-.006 29V8.238h3.289C4.208 3.473 8.213 0 12.998 0c4.784 0 8.79 3.473 9.715 8.238h3.289V29H-.006zM12.998 2.774c-3.309 0-6.106 2.272-6.971 5.464h13.941c-.865-3.192-3.661-5.464-6.97-5.464zm10.337 8.238H2.661v15.214h20.674V11.012zM12.998 14.5c1.196 0 2.165 1.008 2.165 2.251 0 1.243-.969 2.251-2.165 2.251-1.196 0-2.165-1.008-2.165-2.251 0-1.243.969-2.251 2.165-2.251z"/>
</symbol><symbol id="icon-phone" viewBox="0 0 19 19">
    <path d="M17.971 8.587a1.025 1.025 0 0 1-1.022-1.028c0-3.04-2.456-5.512-5.474-5.512-.565 0-1.022-.46-1.022-1.028 0-.568.457-1.028 1.022-1.028 4.145 0 7.517 3.395 7.517 7.568 0 .567-.457 1.028-1.021 1.028zm-6.523-4.714c2.033 0 3.688 1.665 3.688 3.712 0 .568-.458 1.028-1.022 1.028-.564 0-1.021-.46-1.021-1.028 0-.913-.739-1.656-1.645-1.656-.565 0-1.022-.46-1.022-1.027 0-.569.457-1.029 1.022-1.029zm.202 8.099c.597-.6 1.568-.6 2.164 0l2.507 2.523a1.55 1.55 0 0 1 0 2.179l-.2.202a7.169 7.169 0 0 1-5.1 2.123 7.167 7.167 0 0 1-5.1-2.123l-3.816-3.841c-2.812-2.83-2.812-7.436 0-10.266l.201-.202a1.525 1.525 0 0 1 2.164 0L6.977 5.09c.289.29.449.677.449 1.089 0 .412-.16.799-.449 1.09L5.868 8.384a.178.178 0 0 0 0 .248l4.427 4.456a.176.176 0 0 0 .246 0l1.109-1.116zm-2.716 2.487l-4.427-4.457a2.123 2.123 0 0 1 0-2.987l.83-.836-1.948-1.96a5.351 5.351 0 0 0 .077 7.445l3.816 3.842a5.269 5.269 0 0 0 7.398.077l-1.947-1.96-.831.836a2.093 2.093 0 0 1-2.968 0z"/>
</symbol><symbol id="icon-pirates-icon" viewBox="0 0 165.2 177.9">
    <path d="M120.6 80.1c-1.4-.2-2.9-.1-4.2.4l-6.7-5.6c-.2.1-.3.2-.5.2v10.2l1.9 1.5c-.8 4.5 2.2 8.7 6.7 9.5 4.5.8 8.7-2.2 9.5-6.7.7-4.4-2.3-8.7-6.7-9.5zm-1.3 10c-1 .1-1.9-.7-2-1.8v-.4c.1-.4.1-.8.1-1.2.4-.1.8-.2 1.1-.3.2-.1.4-.1.5-.1 1-.1 1.9.7 2 1.8s-.7 2-1.7 2z"/>
    <path d="M51 85.4c-1.6 4.3.6 9 4.9 10.6 4.3 1.6 9-.6 10.6-4.9.5-1.4.6-2.8.4-4.2l1.9-1.6V74.5l-7.2 6c-4.3-1.6-9 .6-10.6 4.9zm8.1 4.7c-1 .2-2-.5-2.2-1.5-.2-1 .5-2 1.5-2.2h.2c.3 0 .5 0 .8.1.4.1.7.2 1.1.3 0 .4 0 .8.1 1.2.2.9-.5 1.9-1.5 2.1z"/>
    <path d="M165.2 12.6c-23.5 7-48.6 7.1-72.2.3-24.1-7-49.8-7.1-74-.3V0H0v177.9h19.1v-63.4c23.5-7 48.6-7.1 72.2-.3 24.1 7 49.8 7.1 74 .3V57.2H145l20.3-9.2V12.6zm-152.5 159H6.4V6.4h6.4v165.2zM158.9 43.9L129 57.5c-1.6.7-2.3 2.6-1.6 4.2.5 1.1 1.6 1.9 2.9 1.9h28.6v46.1c-21.7 5.3-44.4 4.8-65.8-1.5-24.1-7-49.8-7.1-74-.3V19.2c11.1-3.3 22.6-5.1 34.3-5.3 12.8-.2 25.6 1.5 37.9 5 22 6.4 45.3 7 67.6 1.9v23.1z"/>
    <path d="M81 47.6c-2.6 0-4.8 2.1-4.8 4.7s2.1 4.8 4.7 4.8 4.8-2.1 4.8-4.7c.1-2.6-2-4.8-4.7-4.8z"/>
    <path d="M96.9 47.6c-2.6 0-4.8 2.1-4.8 4.7s2.1 4.8 4.7 4.8 4.8-2.1 4.8-4.7c.1-2.6-2-4.8-4.7-4.8z"/>
    <path d="M122 30.1c-.9-.3-1.9-.5-2.9-.5-4.5 0-8.2 3.7-8.2 8.3 0 .5 0 .9.1 1.4l-2.6 2.2c2.1 1.8 3.9 3.9 5.4 6.2l2.4-2c4.3 1.6 9-.6 10.6-4.9 1.6-4.4-.6-9.2-4.8-10.7zm-2.8 9.6c-.2 0-.5 0-.7-.1-.4-.1-.7-.2-1.1-.3 0-.4 0-.8-.1-1.2-.2-1 .5-2 1.5-2.2h.3c1 0 1.9.8 2 1.8 0 1.1-.8 2-1.9 2z"/>
    <path d="M115.4 60c-2-12.9-13-22.4-26-22.6-13.3-.3-24.8 9.4-26.9 22.6-.9 5.7 2.8 11.1 8.5 12.4.6.1 1 .6 1 1.2v11.6h6.8V80h6.8v5.2h6.8V80h6.8v5.2h6.8V73.6c0-.6.4-1.1 1-1.2 5.6-1.3 9.3-6.7 8.4-12.4zm-9.8 6.2c-3.5.8-6 3.8-6 7.4H78.3c0-3.6-2.5-6.6-6-7.4-2.4-.5-3.9-2.8-3.5-5.2 1.5-9.8 9.9-17.1 19.8-17.3 10.2-.2 18.9 7.2 20.5 17.3.4 2.4-1.2 4.6-3.5 5.2z"/>
    <path d="M58.4 46c1.1 0 2.2-.1 3.2-.5l2.4 2c1.5-2.3 3.4-4.4 5.4-6.2l-2.6-2.2c.8-4.5-2.2-8.7-6.7-9.5-.4-.1-.7-.1-1.1-.1-4.5-.2-8.4 3.3-8.6 7.9-.1 4.6 3.5 8.4 8 8.6zm-.3-9.9c.2-.1.4-.1.7-.1 1 0 1.9.9 1.9 1.9v.3c-.1.4-.1.8-.1 1.2-.4.1-.8.2-1.1.3-1 .4-2.1-.1-2.4-1.1-.5-1.1 0-2.2 1-2.5z"/>
    <path d="M85.8 66.7h6.3L89 60.4z"/>
</symbol><symbol id="icon-product-check" viewBox="0 0 32 43">
    <path d="M30.699 42.889H2.191A1.249 1.249 0 0 1 .952 41.63V2.163c0-.696.554-1.259 1.239-1.259h13.891c.333.001.635.135.857.353l14.62 14.283c.276.27.409.649.374 1.024.004.039.006.079.006.118V41.63a1.25 1.25 0 0 1-1.24 1.259zM17.318 5.122v10.066h10.304L17.318 5.122zm12.141 12.584h-13.38a1.25 1.25 0 0 1-1.24-1.259V3.422H3.431v36.949h26.028V17.706zm-18.7 11.451l3.052 3.12 9.168-9.319a1.423 1.423 0 0 1 2.035 0 1.478 1.478 0 0 1 0 2.066L14.829 35.357c-.562.57-1.473.57-2.035 0l-4.07-4.133a1.478 1.478 0 0 1 0-1.994 1.426 1.426 0 0 1 2.035-.073z"/>
</symbol><symbol id="icon-product-like" viewBox="0 0 32 43">
    <path d="M30.699 42.924H2.192a1.25 1.25 0 0 1-1.24-1.259V2.198A1.25 1.25 0 0 1 2.192.939H16.082c.333.001.635.136.858.353l14.618 14.284c.277.269.41.649.375 1.024.004.039.006.078.006.118v24.947a1.25 1.25 0 0 1-1.24 1.259zM17.318 5.157v10.066h10.304L17.318 5.157zm12.141 12.585H16.078a1.25 1.25 0 0 1-1.239-1.259V3.457H3.431v36.949h26.028V17.742zM9.056 22.748a5.158 5.158 0 0 1 3.653-1.539c1.397 0 2.728.562 3.689 1.541l.047.047.048-.048a5.113 5.113 0 0 1 3.67-1.54c1.379 0 2.711.562 3.672 1.54a5.275 5.275 0 0 1 1.515 3.727 5.32 5.32 0 0 1-1.515 3.729l-6.571 6.672a1.136 1.136 0 0 1-.819.344c-.31 0-.601-.122-.818-.345l-6.572-6.672a5.32 5.32 0 0 1-1.515-3.73 5.316 5.316 0 0 1 1.516-3.726zm1.638 5.792l5.751 5.843 5.751-5.842a2.937 2.937 0 0 0 .839-2.063v-.003a2.935 2.935 0 0 0-.837-2.063c-1.077-1.094-3.001-1.088-4.067 0l-.868.879c-.439.446-1.204.442-1.636-.001l-.866-.878a2.855 2.855 0 0 0-4.066-.001 2.937 2.937 0 0 0-.84 2.063 2.935 2.935 0 0 0 .839 2.066z"/>
</symbol><symbol id="icon-quality-icon" viewBox="0 0 88.7 92.8">
    <path d="M82.8 46.6c-.1-.1-.1-.4 0-.6l5.3-10.1c.7-1.2.8-2.6.3-3.9-.4-1.3-1.3-2.3-2.5-3l-10-5.1c-.1-.1-.4-.3-.4-.6L73.7 12c-.5-2.5-2.5-4.3-5-4.3-.2 0-.6 0-.8.1L56.5 9.7c-.2 0-.3 0-.6-.2l-8-8.1c-1-1-2.2-1.4-3.6-1.4-1.3 0-2.6.5-3.6 1.4l-8 8.1c-.1.1-.3.2-.4.2h-.1L20.9 7.9h-.3c-.2 0-.3-.1-.4-.1-2.6 0-4.7 1.8-5 4.3l-1.8 11.3c-.1.3-.2.5-.3.6L2.8 29.2c-1.3.7-2.1 1.7-2.5 3-.5 1.2-.3 2.6.3 3.8l5.2 10.1c.1.1.1.4 0 .6L.6 56.9c-.7 1.2-.8 2.6-.3 3.9.4 1.3 1.3 2.3 2.5 3l10 5.1c.1.1.4.3.4.6L15 80.7c.5 2.5 2.5 4.3 5 4.3.2 0 .6 0 .8-.1l11.3-1.8c.2 0 .3 0 .6.2l8 8.1c1 1 2.2 1.4 3.6 1.4 1.3 0 2.6-.5 3.6-1.4l8-8.1c.2-.2.3-.2.6-.2l11.4 1.8h.3c.2 0 .3.1.4.1 2.6 0 4.7-1.8 5-4.3l1.8-11.3c.1-.3.2-.5.3-.6l10.2-5.2c1.2-.7 2.1-1.7 2.5-3 .4-1.3.3-2.7-.3-3.9l-5.3-10.1zM4.6 58.9l5.2-10.1c.8-1.4.8-3.2 0-4.7L4.5 34c-.1-.2-.1-.4-.1-.6 0-.1.1-.3.4-.4L15 27.8c1.5-.8 2.4-2.2 2.7-3.8l1.8-11.3c.1-.3.4-.6.7-.6L31.5 14h.3c.2 0 .3.1.4.1 1.3 0 2.6-.5 3.6-1.4l8-8.1c.2-.2.7-.2.9 0l8 8.1c1.1 1.1 2.8 1.7 4.4 1.4l11.3-1.8c.2 0 .3 0 .5.1.1.1.2.2.3.5L71 24.2c.2 1.6 1.2 3 2.7 3.8L84 33.2c.1 0 .2.2.3.4.1.2 0 .3-.1.5L79 44.2c-.7 1.4-.6 3.2.1 4.6l5.2 10c.1.2.1.4.1.6 0 .1-.1.3-.4.4L73.7 65c-1.5.8-2.4 2.2-2.7 3.8L69.2 80c-.1.3-.4.6-.7.6l-11.3-1.8c-1.5-.2-3.2.3-4.4 1.4l-8 8.1c-.2.2-.7.2-.9 0l-8-8.1c-1-1-2.2-1.4-3.6-1.4-.2 0-.6 0-.8.1l-11.2 1.8c-.2 0-.3 0-.5-.1-.1-.1-.2-.2-.3-.5l-1.8-11.3c-.2-1.6-1.2-3-2.7-3.8L4.8 59.8c-.1 0-.2-.2-.3-.4-.1-.2 0-.3.1-.5z"/>
    <path d="M25.5 63.6h5.2c.9 0 1.7-.3 2.4-.8 1.2.9 2.7 1.4 4.3 1.4h18c4.5 0 7.6-2.5 8.1-6.7L65.9 42v-.3c.1-1.7-.5-3.4-1.8-4.7-1.3-1.4-3.2-2.2-5.1-2.2h-8v-5.4c0-3.2-1-5.5-2.9-6.9-2.9-2.2-6.7-1.1-7.1-.9-.9.3-1.6 1.1-1.6 2.1v7.4c0 4.9-6 6.7-6 6.7-.2 0-.3 0-.5.1-.7-.5-1.5-.7-2.2-.7h-5.2c-2.3 0-4.1 1.8-4.1 4.1v18.2c0 2.3 1.9 4.1 4.1 4.1zm.3-4.3V41.6h4.6v17.7h-4.6zm23.1-20.1h10.2c1.5 0 2.6 1.1 2.6 2.4l-2.5 15.3c-.1.9-.3 3-3.7 3h-18c-1.4 0-2.6-1.2-2.6-2.6V42c1.8-.6 9-3.4 9-10.9v-5.4c.6 0 1.2.1 1.7.4.7.5 1.1 1.6 1.1 3.3V37c0 1.2 1.1 2.2 2.2 2.2z"/>
</symbol><symbol id="icon-return-product-2" viewBox="0 0 424.7 470">
    <path d="M424.7 71.7c0-.7-.1-1.3-.3-1.9v-.9l-.7-1.1c-.4-.6-.8-1.2-1.3-1.8l-.4-.5c-.7-.7-1.5-1.2-2.4-1.7L282.8.8c-2.3-1.1-5-1.1-7.3 0L138.6 63.9c-.9.4-1.7 1-2.3 1.6l-.5.5c-.5.6-.9 1.2-1.3 1.9L134 69v.8c-.2.6-.2 1.3-.3 2V171L4.8 230.4c-.9.4-1.6 1-2.3 1.6l-.5.5c-.5.6-.9 1.2-1.2 1.9l-.5 1.1v.8c-.2.6-.2 1.3-.3 2v161.1c0 3.4 2 6.4 5 7.8l134.7 62.1c1.2.5 2.4.8 3.6.8 1.2 0 2.5-.3 3.6-.8l134.8-62.1c3-1.4 5-4.5 5-7.8v-42.7c55.8-2.3 101.1-45.9 106-101l26.9-12.4c3.1-1.4 5-4.5 5-7.9l.1-163.7zM279.2 18.2l116.1 53.5-116.1 53.5-116.1-53.4 116.1-53.6zm-8.7 206.9l-66.1-30.4c14.6-22.2 38.5-37.8 66.1-41.3v71.7zm-8.6-88.6c-31.2 5.8-57.8 24.6-74 50.6l-36.9-17V85.3l110.9 51.2zM134.7 447.8l-117.6-54V251.6l117.6 54.3v141.9zm8.6-157L29.1 238.2l114.2-52.6 36.6 16.9c-5.6 13.3-8.8 27.9-8.8 43.3h18c0-12.7 2.5-24.7 7.1-35.7l61.3 28.2-114.2 52.5zM152 448V306l117.6-54.4v86.2c-14.5-2-28.2-7.3-40.1-15.6h19.2v-18h-38.4v.2h-9.6v46.3h18v-13.9c15.1 10.6 32.5 17.1 50.9 19.2v37.8L152 448zm134.8-109.4v-34.1l86.5-39.9c-8.4 40.8-43.7 71.9-86.5 74zm120.6-108.8l-119.5 55.1v-132c17.4 1.1 34.2 7 48.3 17.1h-18.5v18H356v-.2h9.6v-46.3h-18V156c-14.6-10.6-31.5-17.5-49.4-20.1l109.2-50.5v144.4z"/>
</symbol><symbol id="icon-return-product" viewBox="0 0 442.5 379.7">
    <path d="M442.5 71.7c0-.7-.1-1.3-.3-1.9v-.9l-.7-1.1c-.4-.6-.8-1.2-1.3-1.8l-.4-.5c-.7-.7-1.5-1.2-2.4-1.7L300.6.8c-2.3-1.1-5-1.1-7.3 0L156.4 63.9c-.9.4-1.7 1-2.3 1.6l-.5.5c-.5.6-.9 1.2-1.3 1.9l-.5 1.1v.8c-.2.6-.2 1.3-.3 2v86.1c-57.3 4.3-102.6 52.3-102.6 110.7h18c0-51.3 41.7-93 93-93 19.5 0 38.3 6.1 53.9 17.3h-18.5v18h38.4v-.2h9.6v-46.3h-18v14.5c-16.5-12-36.1-19.3-56.6-21V85.3l119.5 55.1v144.2l-28.3-13-.1.2-6.9-3c-.1 51.2-41.8 92.8-93 92.8-19.1 0-37.4-5.8-52.8-16.5h19.2v-18H88v.2h-9.6v46.3h18v-13.9c18.5 13 40.5 19.9 63.5 19.9 52.3 0 96.3-36.4 108-85.1l25.3 11.7c1.2.5 2.4.8 3.6.8 1.2 0 2.5-.3 3.6-.8l136.9-63.1c3.1-1.4 5-4.5 5-7.9l.2-163.5zm-145.6 53.6L180.8 71.8l116.1-53.5L413 71.8l-116.1 53.5zm128.2 104.5l-119.5 55.1V140.6l119.5-55.3v144.5z"/>
    <path d="M25.6 286.9h-9.4v.1L0 313.1l.6 5.7h15.7v8.6h9.4v-8.6h4.1v-7.2h-4.1v-24.7zm-9.4 24.7H8.9l6.7-11.5.6-.9v12.4z"/>
    <path d="M60 306.6c1.7-.9 3-2.1 4-3.6s1.5-3.2 1.5-5.2c0-3.5-1.2-6.3-3.6-8.3-2.4-2-5.6-3.1-9.7-3.1s-7.3 1-9.7 3.1c-2.4 2-3.6 4.8-3.6 8.3 0 2 .5 3.7 1.5 5.2s2.3 2.7 4.1 3.6c-2 1-3.6 2.3-4.7 4s-1.7 3.6-1.7 5.8c0 3.6 1.3 6.5 3.8 8.6 2.5 2.1 6 3.2 10.4 3.2s7.8-1 10.3-3.1c2.5-2.1 3.7-5 3.7-8.6 0-2.2-.6-4.2-1.7-5.8-1.2-1.9-2.7-3.2-4.6-4.1zm-10.8-11.8c.7-.8 1.6-1.2 2.9-1.2 1.3 0 2.3.4 2.9 1.3.7.8 1 2 1 3.4s-.3 2.6-1 3.5c-.6.9-1.6 1.3-2.9 1.3-1.3 0-2.3-.4-3-1.3s-1-2.1-1-3.5c.1-1.5.5-2.7 1.1-3.5zm6.4 24.6c-.9.9-2 1.4-3.4 1.4s-2.6-.5-3.5-1.4-1.3-2.2-1.3-3.8c0-1.7.4-3 1.3-3.9.9-.9 2-1.4 3.4-1.4s2.5.5 3.4 1.4c.9.9 1.3 2.2 1.3 3.9 0 1.6-.4 2.8-1.2 3.8z"/>
    <path d="M192.6 266c-1.4 0-2.5-.4-3.4-1.3-.9-.9-1.3-2-1.4-3.5h-9.4c0 2.3.6 4.4 1.9 6.2 1.3 1.8 3 3.3 5.2 4.3s4.6 1.6 7.2 1.6c2.9 0 5.3-.6 7.4-1.7 2.1-1.1 3.7-2.8 4.9-4.9 1.2-2.1 1.7-4.5 1.7-7.1 0-4.3-1.1-7.6-3.2-10-2.2-2.4-5.3-3.6-9.3-3.6-1 0-2.1.1-3.2.4-1.1.3-2 .6-2.6 1l.9-8h16.1v-7.3h-23.7l-2.5 20.7 7.5 1.8c1.1-1.4 2.7-2.1 4.9-2.1 3.9 0 5.8 2.2 5.8 6.5-.1 4.6-1.7 7-4.8 7z"/>
    <path d="M230 273.2c4.5 0 7.9-1.5 10.4-4.5s3.7-7.2 3.7-12.7v-7.4c0-5.5-1.2-9.7-3.7-12.7s-5.9-4.5-10.4-4.5-8 1.5-10.4 4.5c-2.5 3-3.7 7.2-3.7 12.7v7.4c0 5.4 1.2 9.6 3.7 12.6 2.4 3.1 5.8 4.6 10.4 4.6zm-4.8-26.3c.1-2.7.4-4.7 1.2-6.1.7-1.3 1.9-2 3.5-2 1.7 0 2.9.7 3.6 2.2.8 1.4 1.1 3.6 1.1 6.5v10c0 2.9-.4 5.1-1.2 6.4-.8 1.4-1.9 2-3.5 2-1.7 0-2.9-.7-3.6-2.1-.8-1.4-1.1-3.6-1.1-6.6v-10.3z"/>
</symbol><symbol id="icon-rubl-bold" viewBox="0 0 15 16">
    <path d="M-.022 7.291h1.969V.008h5.518c2.089 0 3.45.092 4.107.251 1.944.481 3.426 2.124 3.426 4.681 0 2.922-1.992 4.451-3.791 4.816-.826.161-2.018.229-3.573.229H5.398v1.369h8.871v2.694H5.398v1.963H1.947v-1.963H-.022v-2.694h1.969V9.985H-.022V7.291zm5.42-4.565v4.541H7.27c1.36 0 2.26-.09 2.721-.25a2.128 2.128 0 0 0 1.459-2.032c0-1.164-.827-1.963-1.92-2.145-.413-.07-1.239-.114-2.479-.114H5.398z"/>
</symbol><symbol id="icon-rubl-light" viewBox="0 0 10 12">
    <path d="M.017 7.46h1.201v.992H.017v1.297h1.201v2.273h1.488V9.749h6.483V8.452H2.706V7.46h2.865c1.585 0 2.689-.32 3.298-.977.608-.656.912-1.472.912-2.433 0-1.6-1.008-2.897-2.641-3.137C6.756.849 6.196.817 5.443.817H1.218v5.362H.017V7.46zm2.689-5.314h2.849c.689 0 1.153.032 1.393.096.784.208 1.28.912 1.28 1.856 0 1.297-.704 2.049-2.641 2.049H2.706V2.146z"/>
</symbol><symbol id="icon-rubl-round" viewBox="0 0 89.9 89.8">
    <path d="M76.7 13.1C67.9 4.4 56.4 0 44.9 0s-23 4.4-31.8 13.2c-17.5 17.5-17.5 46 0 63.5 8.8 8.7 20.3 13.1 31.8 13.1s23-4.4 31.8-13.2c17.5-17.5 17.5-45.9 0-63.5zm-3.8 59.8c-7.5 7.5-17.4 11.6-28 11.6-10.6 0-20.5-4.1-28-11.6S5.3 55.5 5.3 44.9c0-10.6 4.1-20.5 11.6-28s17.4-11.6 28-11.6c10.6 0 20.5 4.1 28 11.6s11.6 17.4 11.6 28c0 10.6-4.1 20.5-11.6 28z"/>
    <path d="M52.6 17.5H35.7c-1.6 0-2.8 1.3-2.8 2.8v23.2h-4.7c-1.6 0-2.8 1.3-2.8 2.8 0 1.6 1.3 2.8 2.8 2.8h4.7v5.3h-4.7c-1.6 0-2.8 1.3-2.8 2.8s1.3 2.8 2.8 2.8h4.7v9.3c0 1.6 1.3 2.8 2.8 2.8s2.8-1.3 2.8-2.8V60h15.7c1.6 0 2.8-1.3 2.8-2.8s-1.3-2.8-2.8-2.8H38.5v-5.3h14c8.7 0 15.9-7.1 15.9-15.9s-7.1-15.7-15.8-15.7zm0 26h-14V23.2h14.1c5.6 0 10.2 4.6 10.2 10.2-.1 5.6-4.7 10.1-10.3 10.1z"/>
</symbol><symbol id="icon-rubl" viewBox="0 0 14 18">
    <path d="M9.62 14.541v-2.064H5.084v-1.728h1.704c4.249 0 6.265-2.041 6.265-5.281 0-3.216-2.016-5.352-6.265-5.352H2.492v8.4H.404v2.233h2.088v1.728H.404v2.064h2.088v3.336h2.592v-3.336H9.62zM5.084 2.492h1.704c2.952 0 3.673 1.512 3.673 2.928S9.74 8.516 6.788 8.516H5.084V2.492z"/>
</symbol><symbol id="icon-sad-product" viewBox="0 0 384.6 370.6">
    <path d="M384.6 71.7c0-.7-.1-1.3-.3-1.9v-.9l-.7-1.1c-.4-.6-.8-1.2-1.3-1.8l-.4-.5c-.7-.7-1.5-1.2-2.4-1.7L242.7.8c-2.3-1.1-5-1.1-7.3 0l-137 63.1c-.9.4-1.7 1-2.3 1.6l-.5.5c-.5.6-.9 1.2-1.3 1.9l-.5 1.1v.8c-.2.6-.2 1.3-.3 2v92.6c-35.4 4.3-63 34.5-63 71 0 25.8 13.8 48.5 34.3 61.1-9.6 3.6-18.6 8.5-27 14.8-18 13.6-31.5 32.9-38 54.3l16.3 4.9c5.5-18 16.8-34.3 32-45.7 15-11.3 32.7-17.5 51.4-18 .8 0 1.7.1 2.5.1s1.7 0 2.5-.1c38 1 71.1 25.6 82.9 61.9l16.2-5.3c-10.3-31.7-34.4-55.9-64.3-67 9.6-5.9 17.8-14 23.7-23.6l72.3 33.3c1.2.5 2.4.8 3.6.8 1.2 0 2.5-.3 3.6-.8L379.4 243c3.1-1.4 5-4.5 5-7.9l.2-163.4zM104.7 290h-5c-28.9-1.3-52.1-25.3-52.1-54.5 0-30.1 24.5-54.6 54.6-54.6s54.6 24.5 54.6 54.6c-.1 29.2-23.2 53.1-52.1 54.5zm125.6-5.3l-60-27.6c2.2-6.8 3.4-14.1 3.4-21.7 0-36.5-27.5-66.7-62.9-71V85.3l119.5 55.1v144.3zm8.7-159.4L122.9 71.8 239 18.2l116.1 53.5L239 125.3zm128.2 104.5l-119.5 55.1V140.6l119.5-55.3v144.5z"/>
    <path d="M102.2 244.8c-13.6 0-25.9 8.1-31.2 20.7l15.7 6.6c2.6-6.3 8.7-10.3 15.5-10.3 6.8 0 12.9 4 15.5 10.3l15.6-6.7c-5.2-12.5-17.5-20.6-31.1-20.6z"/>
    <circle cx="80" cy="217.2" r="11.9"/>
    <circle cx="124" cy="217.2" r="11.9"/>
</symbol><symbol id="icon-sale-card" viewBox="0 0 156.6 223.8">
    <path d="M93.2 0H18.6C8.4 0 0 8.4 0 18.6v134.3c0 10.3 8.4 18.6 18.6 18.6h33.6v9.8c0 23.4 19 42.4 42.4 42.4h58.3c2.1 0 3.7-1.7 3.7-3.7v-95c0-9.3-3.2-18.3-9-25.6l-35.8-44.7v-36C111.9 8.4 103.5 0 93.2 0zm0 7.5c6.2 0 11.2 5 11.2 11.2v97.8l-14.9-15.9V7.5h3.7zM82 92.7l-6.4-6.8c-1.4-1.4-3-2.6-4.8-3.5V7.5H82v85.2zM7.5 152.9V18.6c0-6.2 5-11.2 11.2-11.2h44.8v73c-4.7-.2-9.2 1.7-12.5 5-6.3 6.4-6.7 16.5-1 23.3l13.5 15.9v39.3H18.6c-6.1.2-11.1-4.8-11.1-11zm74.9 11.2H70.9v-30.5L82 146.8v11.5c.1 2 .2 3.9.4 5.8zm59.4-60.1c4.8 6 7.4 13.3 7.4 21v91.3H94.6c-19.3 0-34.9-15.7-34.9-34.9v-9.8h24.2c4.3 15.3 15.5 27.7 30.4 33.3l2.6-7c-16.5-6.2-27.4-22-27.4-39.6v-12.9c0-.9-.3-1.7-.9-2.4l-33-39c-3.3-3.9-3-9.6.5-13.2 1.9-1.9 4.4-2.9 7.1-2.9 2.6 0 5.2 1.1 7 3.1l50.1 53.3 5.4-5.1-13.9-14.8V66.6l30 37.4z"/>
    <path d="M18.6 18.6h7.5v48.5h-7.5z"/>
    <path d="M37.3 18.6h7.5v29.8h-7.5z"/>
    <path d="M44.8 123.1H22.4c-2.1 0-3.7 1.7-3.7 3.7v22.4c0 2.1 1.7 3.7 3.7 3.7h22.4c2.1 0 3.7-1.7 3.7-3.7v-22.4c0-2.1-1.7-3.7-3.7-3.7zM41 145.5H26.1v-14.9H41v14.9z"/>
</symbol><symbol id="icon-sale-icon-2" viewBox="0 0 438 342.5">
    <path d="M283.7 137.9c-6.1 6.1-9.4 14.2-9.4 22.8 0 8.6 3.4 16.7 9.4 22.8 6.3 6.3 14.5 9.4 22.8 9.4s16.5-3.1 22.8-9.4c6.1-6.1 9.4-14.2 9.4-22.8s-3.4-16.7-9.4-22.8c-12.6-12.5-33-12.5-45.6 0zm31.4 31.5c-4.8 4.8-12.5 4.8-17.3 0-2.3-2.3-3.6-5.4-3.6-8.7 0-3.3 1.3-6.3 3.6-8.7 2.4-2.4 5.5-3.6 8.7-3.6s6.3 1.2 8.7 3.6c2.3 2.3 3.6 5.4 3.6 8.7-.1 3.3-1.3 6.4-3.7 8.7z"/>
    <path d="M227 113.5c8.3 0 16.5-3.1 22.8-9.4 12.6-12.6 12.6-33 0-45.6-12.6-12.6-33-12.6-45.6 0-12.6 12.6-12.6 33 0 45.6 6.2 6.2 14.5 9.4 22.8 9.4zm-8.7-40.9c2.4-2.4 5.5-3.6 8.7-3.6 3.1 0 6.3 1.2 8.7 3.6 4.8 4.8 4.8 12.5 0 17.3-4.8 4.8-12.5 4.8-17.3 0-4.9-4.8-4.9-12.6-.1-17.3z"/>
    <path d="M132.6 37.9c-5.5 0-10 4.5-10 10v25c0 5.5 4.5 10 10 10s10-4.5 10-10v-25c0-5.5-4.5-10-10-10z"/>
    <path d="M204.7 186.1c2 2 4.5 2.9 7.1 2.9 2.6 0 5.1-1 7.1-2.9l116.9-117c3.9-3.9 3.9-10.2 0-14.1-3.9-3.9-10.2-3.9-14.1 0l-117 116.9c-3.9 3.9-3.9 10.3 0 14.2z"/>
    <path d="M428 0H134c-5.5 0-10 4.5-10 10v4.8h-19.6V10c0-5.5-4.5-10-10-10H10.2C4.7 0 .2 4.5.2 10v119c-.1.1-.1.3-.2.4v48c.1.1.1.3.2.4v61.7c0 5.5 4.5 10 10 10h43.2c5.4 7.4 12.2 13.7 20 18.6-9.2 3.6-17.9 8.4-25.9 14.5-18 13.7-31.5 33.2-37.9 54.8l17.3 5.1c5.3-18 16.5-34.2 31.6-45.6 14.3-10.9 31.2-17 49.1-17.9 1.5.1 3 .2 4.5.2s3-.1 4.5-.2c17.7.9 34.4 6.9 48.6 17.5 14.9 11.2 26.2 27.1 31.7 44.7L214 336c-6.6-21.3-20.1-40.4-38.1-53.8-7.9-5.9-16.4-10.6-25.3-14.1 7.8-4.9 14.6-11.2 20-18.6H428c5.5 0 10-4.5 10-10V10c0-5.5-4.5-10-10-10zM116.4 261.1c-1.5-.1-2.9-.1-4.4-.1-1.5 0-2.9 0-4.4.1-28.1-2.2-50.3-25.8-50.3-54.4 0-30.1 24.5-54.6 54.6-54.6s54.6 24.5 54.6 54.6c.1 28.6-22 52.1-50.1 54.4zM418 229.5H180.9c2.4-7.2 3.7-14.9 3.7-22.9 0-29.1-17.2-54.3-42-65.9v-33.3c0-5.5-4.5-10-10-10s-10 4.5-10 10v27.3c-3.5-.5-7-.8-10.6-.8-40.1 0-72.6 32.6-72.6 72.6 0 8 1.3 15.7 3.7 22.9H20.2V20h64.2v4.8c0 5.5 4.5 10 10 10H134c5.5 0 10-4.5 10-10V20h274v209.5z"/>
</symbol><symbol id="icon-sale-icon" viewBox="0 0 444.6 379.1">
    <path d="M434.6 0h-294c-5.5 0-10 4.5-10 10v4.8H111V10c0-5.5-4.5-10-10-10H16.8c-5.5 0-10 4.5-10 10v119c-7.6 12.4-10.5 28.7 0 48.8v61.7c0 5.5 4.5 10 10 10H72l21.8 21.8-10.2 10.2c-20.8-14.2-49.4-12-67.9 6.4-20.8 20.8-20.8 54.8 0 75.6 10.4 10.4 24.1 15.6 37.8 15.6s27.4-5.2 37.8-15.6l47.3-47.3 47.3 47.3c10.4 10.4 24.1 15.6 37.8 15.6 13.7 0 27.4-5.2 37.8-15.6 20.8-20.8 20.8-54.8 0-75.6-18.4-18.4-47.1-20.6-67.9-6.4l-10.2-10.2 21.8-21.8h229.2c5.5 0 10-4.5 10-10V10c.2-5.5-4.3-10-9.8-10zM77.3 349.4c-13 13-34.3 13-47.3 0s-13-34.3 0-47.3 34.3-13.1 47.3 0c13.1 13 13.1 34.2 0 47.3zM200.2 302c6.5-6.5 15.1-9.8 23.7-9.8s17.1 3.3 23.7 9.8c13 13 13 34.3 0 47.3-13.1 13.1-34.3 13-47.3 0-13.2-13-13.2-34.2-.1-47.3zM26.8 229.5v-25.2l1.4 1.4L52 229.5H26.8zm80 90.4c-.9-8.5-3.9-16.9-8.9-24.3l10.2-10.2 16.6 16.6-17.9 17.9zm63.9 0L42.3 191.5c-11.8-11.8-19-22.7-21.4-32.2-1.7-7-.9-13.4 2.8-19.6l155.9 155.9c-5 7.4-8 15.8-8.9 24.3zm-8.9-70.4h15.3l-7.7 7.7-7.6-7.7zm262.8-20h-274v-4.8c0-5.5-4.5-10-10-10H127l-97-97c-.9-.9-2-1.6-3.1-2.1V20H91v4.8c0 5.5 4.5 10 10 10h39.6c5.5 0 10-4.5 10-10V20h274v209.5z"/>
    <ellipse transform="rotate(-45.001 223.83 325.69)" cx="223.8" cy="325.7" rx="20" ry="20"/>
    <ellipse transform="rotate(-13.286 52.812 325.62)" cx="52.8" cy="325.7" rx="20" ry="20"/>
    <path d="M290.3 137.9c-6.1 6.1-9.4 14.2-9.4 22.8 0 8.6 3.4 16.7 9.4 22.8 6.3 6.3 14.5 9.4 22.8 9.4s16.5-3.1 22.8-9.4c6.1-6.1 9.4-14.2 9.4-22.8s-3.4-16.7-9.4-22.8c-12.6-12.5-33-12.5-45.6 0zm31.4 31.5c-4.8 4.8-12.5 4.8-17.3 0-2.3-2.3-3.6-5.4-3.6-8.7 0-3.3 1.3-6.3 3.6-8.7 2.4-2.4 5.5-3.6 8.7-3.6s6.3 1.2 8.7 3.6c2.3 2.3 3.6 5.4 3.6 8.7-.1 3.3-1.3 6.4-3.7 8.7z"/>
    <path d="M233.6 113.5c8.3 0 16.5-3.1 22.8-9.4 12.6-12.6 12.6-33 0-45.6-12.6-12.6-33-12.6-45.6 0-12.6 12.6-12.6 33 0 45.6 6.2 6.2 14.5 9.4 22.8 9.4zm-8.7-40.9c2.4-2.4 5.5-3.6 8.7-3.6 3.1 0 6.3 1.2 8.7 3.6 4.8 4.8 4.8 12.5 0 17.3-4.8 4.8-12.5 4.8-17.3 0-4.9-4.8-4.9-12.6-.1-17.3z"/>
    <path d="M139.2 37.9c-5.5 0-10 4.5-10 10v25c0 5.5 4.5 10 10 10s10-4.5 10-10v-25c0-5.5-4.5-10-10-10z"/>
    <path d="M139.2 97.5c-5.5 0-10 4.5-10 10V142c0 5.5 4.5 10 10 10s10-4.5 10-10v-34.6c0-5.4-4.5-9.9-10-9.9z"/>
    <path d="M139.2 166.6c-5.5 0-10 4.5-10 10v25c0 5.5 4.5 10 10 10s10-4.5 10-10v-25c0-5.5-4.5-10-10-10z"/>
    <path d="M211.3 186.1c2 2 4.5 2.9 7.1 2.9 2.6 0 5.1-1 7.1-2.9l116.9-117c3.9-3.9 3.9-10.2 0-14.1-3.9-3.9-10.2-3.9-14.1 0l-117 116.9c-3.9 3.9-3.9 10.3 0 14.2z"/>
</symbol><symbol id="icon-sales" viewBox="0 0 21 32">
    <path d="M16.2 31.928H4.9c-2.7 0-4.9-2.227-4.9-4.959V9.564c0-1.618.8-3.136 2.1-4.047L9.9.154c.3-.203.8-.203 1.1 0l7.8 5.363a4.96 4.96 0 0 1 2.1 4.047v17.405c.1 2.732-2 4.959-4.7 4.959zm2.9-22.364c0-.91-.5-1.821-1.3-2.428l-7.3-4.958-7.2 4.958C2.5 7.743 2 8.654 2 9.564v17.405c0 1.619 1.3 2.935 2.9 2.935h11.3c1.6 0 2.9-1.316 2.9-2.935V9.564zM5.8 23.63c-.2.202-.4.304-.7.304-.3 0-.5-.102-.7-.304a.987.987 0 0 1 0-1.417l10.9-11.03a.96.96 0 0 1 1.4 0c.4.405.4 1.012 0 1.417L5.8 23.63zm1.7-8.197c-1.7 0-3-1.315-3-3.035 0-1.72 1.3-3.036 3-3.036s3 1.316 3 3.036-1.3 3.035-3 3.035zm0-4.047c-.6 0-1 .405-1 1.012s.4 1.012 1 1.012 1-.405 1-1.012-.4-1.012-1-1.012zm6 8.095c1.7 0 3 1.316 3 3.036s-1.3 3.035-3 3.035-3-1.315-3-3.035c0-1.72 1.3-3.036 3-3.036zm0 4.048c.6 0 1-.405 1-1.012s-.4-1.012-1-1.012-1 .405-1 1.012.4 1.012 1 1.012z"/>
</symbol><symbol id="icon-sauna" viewBox="0 0 51 48">
    <path d="M36.596 48.004h-5.378V33.351c0-1.671 1.386-3.029 3.091-3.029.248 0 .484.041.713.097v-1.39c0-4.272 3.551-7.748 7.914-7.748h.147c4.363 0 7.912 3.476 7.912 7.748v18.975H36.596zm12.02-18.975c0-2.988-2.482-5.418-5.533-5.418h-.147c-3.051 0-5.533 2.43-5.533 5.418v9.044h-2.381v-.298-4.424a.707.707 0 0 0-.713-.698.707.707 0 0 0-.712.698v12.323h15.019V29.029zm-20.391 2.314c-1.39 4.506-5.666 7.797-10.716 7.797-5.332 0-9.788-3.675-10.907-8.57-1.458-.246-4.209-1.406-5.997-6.495-2.399-6.827 2.828-14.942 6.687-18.453C10.48 2.719 15.716-.597 22.582.096c6.99.701 8.837 5.528 8.837 7.983 0 1.664-.173 3.475-1.298 4.589a13.651 13.651 0 0 1 2.826 8.334c0 3.986-1.723 7.731-4.722 10.341zm-3.184-16.706c-2.572.768-5.68 1.698-7.733 2.59.068-.001.133-.011.201-.011 5.917 0 10.763 4.52 11.158 10.216a11.46 11.46 0 0 0 1.98-6.43c0-2.683-.927-5.236-2.61-7.286-.735.244-1.7.535-2.996.921zm-7.532 22.171c4.861 0 8.816-3.871 8.816-8.63s-3.955-8.631-8.816-8.631a8.852 8.852 0 0 0-7.568 4.226l-.08.166-.018-.008a8.423 8.423 0 0 0-1.15 4.247c0 4.759 3.955 8.63 8.816 8.63zm4.828-34.394C16.363 1.812 11.74 4.753 8.912 7.328 5.492 10.442.824 17.536 2.856 23.316c1.126 3.201 2.526 4.349 3.463 4.76a10.674 10.674 0 0 1 1.47-5.296l.08-.168c.089-.183 2.215-4.519 7.809-7.216 2.185-1.055 5.779-2.127 8.668-2.988 1.487-.444 3.734-1.114 4.034-1.314.432-.327.66-1.345.66-3.015 0-.204-.077-5-6.703-5.665z"/>
</symbol><symbol id="icon-save-time" viewBox="0 0 107.5 107.5">
    <style>
        .st0{stroke:#000;stroke-width:.5;stroke-miterlimit:10}
    </style>
    <path class="st0" d="M60.4 107.3h-49c-6.2 0-11.1-5-11.1-11.1v-49c0-6.2 5-11.1 11.1-11.1h26.8v4.5H11.4c-3.7 0-6.7 3-6.7 6.7v49c0 3.7 3 6.7 6.7 6.7h49c3.7 0 6.7-3 6.7-6.7V69.4h4.5v26.8c0 6.1-5 11-11.2 11.1z"/>
    <path class="st0" d="M29.2 69.4H13.6c-1.2 0-2.2-1-2.2-2.2v-29h4.5V65H27V38.1h4.5v29c0 1.3-1 2.3-2.3 2.3z"/>
    <path class="st0" d="M49.3 93.9h13.4v4.5H49.3z"/>
    <path class="st0" d="M49.3 85h13.4v4.5H49.3z"/>
    <path class="st0" d="M71.6 71.6c-19.7 0-35.7-16-35.7-35.7S51.9.2 71.6.2s35.7 16 35.7 35.7c-.1 19.7-16 35.7-35.7 35.7zm0-66.9c-17.2 0-31.2 14-31.2 31.2s14 31.2 31.2 31.2 31.2-14 31.2-31.2-14-31.2-31.2-31.2z"/>
    <path class="st0" d="M81.2 48.6L70 37.5c-.4-.4-.7-1-.7-1.6V18.1h4.5V35l10.5 10.5-3.1 3.1z"/>
    <path class="st0" d="M71.6 62.7c-14.8 0-26.8-12-26.8-26.8s12-26.8 26.8-26.8v4.5c-12.3 0-22.3 10-22.3 22.3s10 22.3 22.3 22.3 22.3-10 22.3-22.3h4.5c-.1 14.8-12 26.8-26.8 26.8z"/>
    <path class="st0" d="M96.1 69.4h4.5v17.8h-4.5z"/>
    <path class="st0" d="M96.1 91.6h4.5v4.5h-4.5z"/>
    <path class="st0" d="M80.5 76H85v17.8h-4.5z"/>
    <path class="st0" d="M80.5 98.3H85v4.5h-4.5z"/>
</symbol><symbol id="icon-search" viewBox="0 0 18 16">
    <path d="M17.817 15.585a.95.95 0 0 1-.777.408c-.2 0-.4-.063-.572-.196l-5.711-4.375C9.613 12.548 8.08 13.25 6.384 13.25c-3.517 0-6.378-2.972-6.378-6.626 0-3.654 2.861-6.626 6.378-6.626s6.378 2.972 6.378 6.626c0 1.169-.318 2.251-.831 3.206l5.682 4.353c.429.329.521.957.204 1.402zM6.384 2.004c-2.452 0-4.447 2.072-4.447 4.62 0 2.547 1.995 4.62 4.447 4.62s4.447-2.073 4.447-4.62c0-2.548-1.995-4.62-4.447-4.62z"/>
</symbol><symbol id="icon-shawl" viewBox="0 0 45 45">
    <path d="M.001 44.994V.005h44.988v44.989H.001zm42.426-2.563v-4.932h-5.666v4.932h5.666zm-8.229 0v-4.932h-1.782v4.932h1.782zm-4.345 0v-4.932H2.563v4.932h27.29zm0-39.864H2.563v28.025h27.29V2.567zM2.563 33.154v1.782h27.29v-1.782H2.563zM34.198 2.567h-1.782v28.025h1.782V2.567zm-1.782 30.587v1.782h1.782v-1.782h-1.782zM42.427 2.567h-5.666v28.025h5.666V2.567zm-5.666 30.587v1.782h5.666v-1.782h-5.666z"/>
</symbol><symbol id="icon-sheet" viewBox="0 0 38 44">
    <path d="M-.002 44V17.27L18.25 0h19.762v44H-.002zm2.437-24.966v22.527h33.141V2.439H20.223v16.595H2.435zm15.352-2.439V3.793L4.258 16.595h13.529z"/>
</symbol><symbol id="icon-sizes" viewBox="0 0 23 23">
    <path d="M21.592 22.94H2.141a1.264 1.264 0 0 1-1.264-1.263V2.225c0-.697.566-1.263 1.264-1.263h19.451c.698 0 1.263.566 1.263 1.263v19.452c0 .697-.565 1.263-1.263 1.263zM20.328 3.489H3.404v16.924h16.924V3.489zM7.554 12.497h.886c.295 0 .535.241.535.534v.429l1.76-1.761c.002-.002.005-.002.006-.004l.867-.867c.003-.002.003-.006.006-.009l1.761-1.76h-.427a.535.535 0 0 1-.535-.534v-.886c0-.296.24-.536.535-.536h3.22a.54.54 0 0 1 .396.177c.086.076.15.22.15.37v3.22c0 .295-.24.535-.535.535h-.887a.535.535 0 0 1-.534-.535v-.428l-1.76 1.761c-.014.015-.034.021-.049.034l-.785.779c-.016.021-.025.047-.045.066l-1.762 1.76h.429c.294 0 .534.24.534.535v.887c0 .294-.24.534-.534.534h-3.22a.529.529 0 0 1-.4-.182c-.08-.065-.146-.211-.146-.364v-3.221c0-.293.239-.534.534-.534z"/>
</symbol><symbol id="icon-socks" viewBox="0 0 41 51">
    <path d="M40.994 33.754L26.505 48.298A9.1 9.1 0 0 1 20.014 51a9.099 9.099 0 0 1-6.493-2.7 9.101 9.101 0 0 1-1.79-2.594 9.194 9.194 0 0 1-2.538.361 9.095 9.095 0 0 1-6.492-2.7 9.159 9.159 0 0 1-2.689-6.515c0-2.462.954-4.776 2.689-6.518l9.11-9.146V-.001h18.362v4.934h10.821v28.821zM27.543 2.638H14.441v5.258h13.102V2.638zm0 7.897H14.441v11.748L4.561 32.2a6.548 6.548 0 0 0-1.92 4.652c0 1.758.681 3.409 1.918 4.648a6.493 6.493 0 0 0 4.632 1.926c1.75 0 3.396-.685 4.635-1.926l6.216-6.241 7.501-7.53V10.535zm10.821-2.964h-8.191v5.258h8.191V7.571zm0 7.896h-8.191V28.82L15.684 43.365a9.244 9.244 0 0 1-1.568 1.258 6.49 6.49 0 0 0 5.896 3.736c1.75 0 3.396-.685 4.634-1.927l6.217-6.24.417-.419 7.084-7.112V15.467z"/>
</symbol><symbol id="icon-terry" viewBox="0 0 45 47">
    <path d="M28.962 46.999H22.974V33.698H5.168V8.984C3.099 7.338.865 5.454.411 4.651A3.122 3.122 0 0 1 1.62.388C3.143-.454 5.07.085 5.923 1.587c.405.717 1.219 3.392 1.826 5.491h24.276v10.778a8.769 8.769 0 0 1 3.997-.98h.163c4.857 0 8.81 3.918 8.81 8.734v21.389H28.962zM2.723 3.367c.067.106.492.543 1.589 1.488-.49-1.546-.657-1.904-.701-1.983a.511.511 0 0 0-.933.111.499.499 0 0 0 .045.384zm26.653 6.337H7.818v21.369h15.156v-.592c0-1.882 1.544-3.413 3.443-3.413.275 0 .538.045.794.109V25.61c0-2.186.82-4.182 2.165-5.716V9.704zM42.345 25.61c0-3.367-2.763-6.107-6.16-6.107h-.163c-3.397 0-6.161 2.74-6.161 6.107V35.804h-2.65v-.337-4.986a.792.792 0 0 0-.794-.786.79.79 0 0 0-.793.786v13.89h16.721V25.61z"/>
</symbol><symbol id="icon-towel" viewBox="0 0 50 45">
    <path d="M48.782 6.022h-5.749v37.719c0 .695-.551 1.26-1.227 1.26H12.871c-.676 0-1.227-.565-1.227-1.26v-5.779h-4.06c-.676 0-1.226-.564-1.226-1.259V6.002H1.226c-.677 0-1.227-.566-1.227-1.26 0-.693.55-1.258 1.227-1.258h5.173l.022-.141c.31-1.931 1.91-3.332 3.808-3.332h28.933c1.908 0 3.51 1.409 3.81 3.35l.022.143h5.788c.677 0 1.227.564 1.227 1.259 0 .694-.55 1.259-1.227 1.259zm-13.3-3.272l.069-.221H10.229c-.781 0-1.416.652-1.416 1.453v27.045h26.478V3.982c0-.424.064-.838.191-1.232zM8.813 33.545v1.899h26.478v-1.899H8.813zm27.705 4.417h-22.42v4.521h26.48l.001-38.638a4.47 4.47 0 0 0-.09-.328 1.414 1.414 0 0 0-.107-.235l-.068-.107a1.42 1.42 0 0 0-.366-.376c-.047-.034-.088-.064-.148-.097a1.403 1.403 0 0 0-.526-.165l-.137-.008a1.439 1.439 0 0 0-1.392 1.453v32.721c0 .695-.55 1.259-1.227 1.259z"/>
</symbol><symbol id="icon-twit" viewBox="0 0 18.7 15">
    <style>
        .st0{fill:#939ba2}
    </style>
    <path id="XMLID_77_" class="st0" d="M18.7 1.8c-.7.3-1.4.5-2.2.6.8-.5 1.4-1.2 1.7-2.1-.7.4-1.6.7-2.4.9C15 .5 14 .1 12.9.1c-2.1 0-3.8 1.7-3.8 3.8 0 .3 0 .6.1.9C6 4.5 3.2 3 1.3.8 1 1.3.8 2 .8 2.7c0 1.3.7 2.5 1.7 3.1-.6 0-1.2-.2-1.7-.5 0 .5.1.9.3 1.4.5 1.2 1.5 2.1 2.8 2.3-.3.1-.7.1-1 .1-.2 0-.5 0-.7-.1.5 1.5 1.9 2.6 3.6 2.6-1.3 1-3 1.6-4.8 1.6-.3 0-.6 0-.9-.1C1.7 14.4 3.7 15 5.9 15c6 0 9.7-4.1 10.6-8.4.2-.8.3-1.5.3-2.3v-.5c.7-.5 1.3-1.2 1.9-2z"/>
</symbol><symbol id="icon-user" viewBox="0 0 20 17">
    <path d="M18.465 16.997a10.895 10.895 0 0 0-.939-1.076c-4.153-4.17-10.91-4.169-15.06 0-.336.336-.651.697-.936 1.071l-1.531-1.176c.338-.442.709-.868 1.104-1.264a12.468 12.468 0 0 1 5.059-3.086c-1.529-1.169-2.533-2.997-2.533-5.072 0-3.525 2.855-6.393 6.366-6.393 3.511 0 6.368 2.868 6.368 6.393 0 2.075-1.005 3.903-2.534 5.072a12.468 12.468 0 0 1 5.059 3.086 12.7 12.7 0 0 1 1.107 1.269l-1.53 1.176zM9.995 1.936c-2.448 0-4.439 2-4.439 4.458 0 2.459 1.991 4.459 4.439 4.459 2.449 0 4.44-2 4.44-4.459 0-2.458-1.991-4.458-4.44-4.458z"/>
</symbol><symbol id="icon-vk" viewBox="0 0 512 292.1">
    <style>
        .st0{fill:#fff}
    </style>
    <path class="st0" d="M509.3 263.8c-.6-1.3-1.2-2.4-1.7-3.3-8.9-16-25.9-35.6-50.9-58.9l-.5-.5-.3-.3-.3-.3h-.3c-11.4-10.8-18.6-18.1-21.6-21.9-5.5-7.1-6.8-14.3-3.7-21.6 2.1-5.5 10.1-17.1 24-34.9 7.3-9.4 13.1-17 17.3-22.7 30.7-40.9 44.1-67 40-78.4l-1.6-2.7c-1.1-1.6-3.8-3.1-8.3-4.4-4.4-1.3-10.1-1.6-17.1-.7l-76.8.5c-1.2-.4-3-.4-5.3.1s-3.5.8-3.5.8l-1.3.7-1.1.8c-.9.5-1.9 1.5-2.9 2.8-1.1 1.3-1.9 2.9-2.7 4.7-8.4 21.5-17.9 41.5-28.5 60-6.6 11-12.6 20.6-18.1 28.7-5.5 8.1-10.1 14-13.9 17.9-3.7 3.8-7.1 6.9-10.1 9.2-3 2.3-5.3 3.3-6.9 2.9-1.6-.4-3.1-.7-4.5-1.1-2.5-1.6-4.5-3.8-6-6.5-1.5-2.8-2.5-6.2-3.1-10.4-.5-4.2-.8-7.8-.9-10.8-.1-3 0-7.3.1-12.8.2-5.5.3-9.2.3-11.2 0-6.8.1-14.1.4-22 .3-7.9.5-14.2.7-18.8.2-4.6.3-9.5.3-14.7s-.3-9.2-.9-12.1c-.6-2.9-1.6-5.8-2.8-8.5-1.2-2.8-3.1-4.9-5.5-6.4s-5.4-2.7-8.9-3.6C273 1.3 261 .1 246.4-.1c-33.1-.4-54.3 1.8-63.7 6.4-3.7 2-7.1 4.6-10.1 8-3.2 3.9-3.6 6-1.3 6.4 10.7 1.6 18.2 5.4 22.7 11.5l1.6 3.2c1.2 2.3 2.5 6.4 3.7 12.3 1.2 5.9 2 12.4 2.4 19.5.9 13 .9 24.1 0 33.3-.9 9.2-1.7 16.4-2.5 21.6-.8 5.2-2 9.3-3.6 12.5-1.6 3.2-2.7 5.2-3.2 5.9-.5.7-1 1.2-1.3 1.3-2.3.9-4.7 1.3-7.2 1.3s-5.5-1.2-9.1-3.7c-3.6-2.5-7.2-5.9-11.1-10.3-3.8-4.4-8.1-10.4-12.9-18.3-4.8-7.8-9.8-17.1-14.9-27.7l-4.3-7.7c-2.7-5-6.3-12.2-10.9-21.7-4.6-9.5-8.7-18.7-12.3-27.6-1.4-3.7-3.6-6.6-6.4-8.5l-1.3-.8c-.9-.7-2.3-1.5-4.3-2.3-2-.8-4-1.4-6.1-1.7l-73 .5c-7.5 0-12.5 1.7-15.2 5.1L.8 20c-.5.9-.8 2.3-.8 4.3s.5 4.4 1.6 7.2c10.7 25 22.3 49.2 34.8 72.5s23.4 42 32.7 56.2c9.2 14.2 18.7 27.6 28.3 40.3 9.6 12.6 16 20.7 19.1 24.3 3.1 3.6 5.6 6.2 7.3 8l6.7 6.4c4.3 4.3 10.5 9.4 18.8 15.3 8.3 6 17.4 11.8 27.5 17.6 10 5.8 21.7 10.5 35.1 14.1 13.3 3.6 26.3 5.1 38.9 4.4h30.7c6.2-.5 10.9-2.5 14.1-5.9l1.1-1.3c.7-1.1 1.4-2.7 2-4.9.6-2.2.9-4.7.9-7.3-.2-7.6.4-14.5 1.7-20.7 1.3-6.1 2.8-10.7 4.5-13.9 1.7-3.1 3.6-5.7 5.7-7.9 2.1-2.1 3.6-3.4 4.5-3.9.9-.4 1.6-.8 2.1-.9 4.3-1.4 9.3 0 15.1 4.1 5.8 4.2 11.2 9.3 16.3 15.5 5.1 6.1 11.2 13 18.3 20.7 7.1 7.6 13.3 13.3 18.7 17.1l5.3 3.2c3.6 2.1 8.2 4.1 13.9 5.9 5.7 1.8 10.7 2.2 14.9 1.3l68.2-1.1c6.7 0 12-1.1 15.7-3.3 3.7-2.2 6-4.7 6.7-7.3.7-2.7.8-5.7.1-9.1-.8-3.4-1.4-5.8-2-7.1z"/>
</symbol></svg>